<?xml version="1.0" encoding="utf-8" standalone="no"?>
<!DOCTYPE svg PUBLIC "-//W3C//DTD SVG 1.1//EN"
  "http://www.w3.org/Graphics/SVG/1.1/DTD/svg11.dtd">
<svg xmlns:xlink="http://www.w3.org/1999/xlink" width="482.15952pt" height="296.524039pt" viewBox="0 0 482.15952 296.524039" xmlns="http://www.w3.org/2000/svg" version="1.1">
 <metadata>
  <rdf:RDF xmlns:dc="http://purl.org/dc/elements/1.1/" xmlns:cc="http://creativecommons.org/ns#" xmlns:rdf="http://www.w3.org/1999/02/22-rdf-syntax-ns#">
   <cc:Work>
    <dc:type rdf:resource="http://purl.org/dc/dcmitype/StillImage"/>
    <dc:date>2024-01-27T10:53:00.480351</dc:date>
    <dc:format>image/svg+xml</dc:format>
    <dc:creator>
     <cc:Agent>
      <dc:title>Matplotlib v3.8.2, https://matplotlib.org/</dc:title>
     </cc:Agent>
    </dc:creator>
   </cc:Work>
  </rdf:RDF>
 </metadata>
 <defs>
  <style type="text/css">*{stroke-linejoin: round; stroke-linecap: butt}</style>
 </defs>
 <g id="figure_1">
  <g id="patch_1">
   <path d="M -0 296.524039 
L 482.15952 296.524039 
L 482.15952 0 
L -0 0 
z
" style="fill: #ffffff"/>
  </g>
  <g id="axes_1">
   <g id="patch_2">
    <path d="M 33.305312 271.795914 
L 476.57952 271.795914 
L 476.57952 12.565 
L 33.305312 12.565 
z
" style="fill: #ffffff"/>
   </g>
   <g id="matplotlib.axis_1">
    <g id="xtick_1">
     <g id="line2d_1">
      <path d="M 33.305312 271.795914 
L 33.305312 12.565 
" clip-path="url(#p58d3734826)" style="fill: none; stroke: #b0b0b0; stroke-width: 0.8; stroke-linecap: square"/>
     </g>
     <g id="line2d_2">
      <defs>
       <path id="m0a18fa5e52" d="M 0 0 
L 0 3.5 
" style="stroke: #000000; stroke-width: 0.8"/>
      </defs>
      <g>
       <use xlink:href="#m0a18fa5e52" x="33.305312" y="271.795914" style="stroke: #000000; stroke-width: 0.8"/>
      </g>
     </g>
     <g id="text_1">
      <!-- 580 -->
      <g transform="translate(28.805312 282.909664) scale(0.06 -0.06)">
       <defs>
        <path id="Times-Roman-35" d="M 478 572 
Q 656 572 945 370 
Q 1234 169 1391 169 
Q 1750 169 2019 486 
Q 2288 803 2288 1266 
Q 2288 2075 1425 2431 
Q 947 2628 534 2628 
Q 466 2628 448 2633 
Q 431 2638 406 2666 
Q 413 2691 417 2708 
Q 422 2725 428 2741 
L 1109 4234 
L 2450 4234 
Q 2550 4234 2604 4268 
Q 2659 4303 2747 4397 
L 2797 4353 
L 2553 3775 
Q 2541 3747 2484 3739 
Q 2428 3731 2363 3731 
L 1153 3731 
L 888 3184 
Q 1400 3097 1638 3019 
Q 2028 2888 2291 2631 
Q 2516 2409 2631 2132 
Q 2747 1856 2747 1547 
Q 2747 856 2255 393 
Q 1763 -69 1009 -69 
Q 703 -69 516 -9 
Q 203 88 203 338 
Q 203 431 270 501 
Q 338 572 478 572 
z
" transform="scale(0.015625)"/>
        <path id="Times-Roman-38" d="M 1609 106 
Q 1969 106 2153 306 
Q 2338 506 2338 806 
Q 2338 1147 2142 1358 
Q 1947 1569 1341 1997 
Q 1072 1828 950 1559 
Q 828 1291 828 1041 
Q 828 613 1048 359 
Q 1269 106 1609 106 
z
M 1650 2494 
Q 1944 2700 2056 2841 
Q 2250 3081 2250 3422 
Q 2250 3719 2067 3926 
Q 1884 4134 1513 4134 
Q 1225 4134 1037 3953 
Q 850 3772 850 3513 
Q 850 3219 1070 2967 
Q 1291 2716 1650 2494 
z
M 1169 2131 
Q 756 2463 606 2659 
Q 375 2959 375 3322 
Q 375 3734 717 4021 
Q 1059 4309 1606 4309 
Q 2109 4309 2406 4037 
Q 2703 3766 2703 3406 
Q 2703 3041 2400 2750 
Q 2225 2584 1834 2369 
Q 2366 1975 2595 1683 
Q 2825 1391 2825 994 
Q 2825 544 2486 237 
Q 2147 -69 1578 -69 
Q 1069 -69 705 214 
Q 341 497 341 959 
Q 341 1356 594 1659 
Q 759 1856 1169 2131 
z
" transform="scale(0.015625)"/>
        <path id="Times-Roman-30" d="M 1531 116 
Q 1991 116 2162 619 
Q 2334 1122 2334 2075 
Q 2334 2834 2231 3288 
Q 2038 4131 1506 4131 
Q 975 4131 778 3263 
Q 675 2800 675 2044 
Q 675 1334 781 909 
Q 981 116 1531 116 
z
M 1522 4300 
Q 2241 4300 2638 3547 
Q 2953 2938 2953 2147 
Q 2953 1525 2759 975 
Q 2394 -59 1494 -59 
Q 878 -59 481 500 
Q 56 1097 56 2122 
Q 56 2928 341 3509 
Q 725 4300 1522 4300 
z
" transform="scale(0.015625)"/>
       </defs>
       <use xlink:href="#Times-Roman-35"/>
       <use xlink:href="#Times-Roman-38" x="50"/>
       <use xlink:href="#Times-Roman-30" x="100"/>
      </g>
     </g>
    </g>
    <g id="xtick_2">
     <g id="line2d_3">
      <path d="M 96.630199 271.795914 
L 96.630199 12.565 
" clip-path="url(#p58d3734826)" style="fill: none; stroke: #b0b0b0; stroke-width: 0.8; stroke-linecap: square"/>
     </g>
     <g id="line2d_4">
      <g>
       <use xlink:href="#m0a18fa5e52" x="96.630199" y="271.795914" style="stroke: #000000; stroke-width: 0.8"/>
      </g>
     </g>
     <g id="text_2">
      <!-- 630 -->
      <g transform="translate(92.130199 282.909664) scale(0.06 -0.06)">
       <defs>
        <path id="Times-Roman-36" d="M 2994 1422 
Q 2994 850 2626 390 
Q 2259 -69 1672 -69 
Q 1122 -69 670 447 
Q 219 963 219 1819 
Q 219 2922 1094 3713 
Q 1875 4375 2850 4375 
L 2866 4272 
Q 2475 4200 2192 4076 
Q 1909 3953 1688 3731 
Q 1459 3506 1259 3159 
Q 1059 2813 984 2472 
Q 1178 2591 1319 2647 
Q 1569 2747 1822 2747 
Q 2319 2747 2656 2403 
Q 2994 2059 2994 1422 
z
M 2422 1181 
Q 2422 1597 2291 1919 
Q 2072 2456 1547 2456 
Q 1063 2456 903 2169 
Q 809 2000 809 1606 
Q 809 1097 1026 609 
Q 1244 122 1713 122 
Q 2084 122 2253 439 
Q 2422 756 2422 1181 
z
" transform="scale(0.015625)"/>
        <path id="Times-Roman-33" d="M 497 544 
Q 669 544 951 366 
Q 1234 188 1431 188 
Q 1869 188 2081 483 
Q 2294 778 2294 1125 
Q 2294 1459 2122 1713 
Q 1831 2141 1141 2141 
Q 1100 2141 1062 2139 
Q 1025 2138 975 2131 
L 969 2213 
Q 1469 2394 1756 2628 
Q 2044 2863 2044 3247 
Q 2044 3588 1817 3766 
Q 1591 3944 1300 3944 
Q 956 3944 694 3691 
Q 550 3553 384 3266 
L 288 3288 
Q 413 3763 753 4047 
Q 1094 4331 1541 4331 
Q 2019 4331 2280 4068 
Q 2541 3806 2541 3463 
Q 2541 3159 2325 2906 
Q 2203 2763 1947 2584 
Q 2247 2456 2428 2284 
Q 2769 1956 2769 1453 
Q 2769 859 2301 406 
Q 1834 -47 972 -47 
Q 588 -47 433 67 
Q 278 181 278 313 
Q 278 394 329 469 
Q 381 544 497 544 
z
" transform="scale(0.015625)"/>
       </defs>
       <use xlink:href="#Times-Roman-36"/>
       <use xlink:href="#Times-Roman-33" x="50"/>
       <use xlink:href="#Times-Roman-30" x="100"/>
      </g>
     </g>
    </g>
    <g id="xtick_3">
     <g id="line2d_5">
      <path d="M 159.955086 271.795914 
L 159.955086 12.565 
" clip-path="url(#p58d3734826)" style="fill: none; stroke: #b0b0b0; stroke-width: 0.8; stroke-linecap: square"/>
     </g>
     <g id="line2d_6">
      <g>
       <use xlink:href="#m0a18fa5e52" x="159.955086" y="271.795914" style="stroke: #000000; stroke-width: 0.8"/>
      </g>
     </g>
     <g id="text_3">
      <!-- 680 -->
      <g transform="translate(155.455086 282.909664) scale(0.06 -0.06)">
       <use xlink:href="#Times-Roman-36"/>
       <use xlink:href="#Times-Roman-38" x="50"/>
       <use xlink:href="#Times-Roman-30" x="100"/>
      </g>
     </g>
    </g>
    <g id="xtick_4">
     <g id="line2d_7">
      <path d="M 223.279973 271.795914 
L 223.279973 12.565 
" clip-path="url(#p58d3734826)" style="fill: none; stroke: #b0b0b0; stroke-width: 0.8; stroke-linecap: square"/>
     </g>
     <g id="line2d_8">
      <g>
       <use xlink:href="#m0a18fa5e52" x="223.279973" y="271.795914" style="stroke: #000000; stroke-width: 0.8"/>
      </g>
     </g>
     <g id="text_4">
      <!-- 730 -->
      <g transform="translate(218.779973 282.909664) scale(0.06 -0.06)">
       <defs>
        <path id="Times-Roman-37" d="M 2872 4234 
L 2872 4131 
L 1516 -59 
L 1103 -59 
L 2369 3763 
L 1006 3763 
Q 703 3763 570 3663 
Q 438 3563 234 3244 
L 125 3294 
Q 328 3794 376 3911 
Q 425 4028 503 4234 
L 2872 4234 
z
" transform="scale(0.015625)"/>
       </defs>
       <use xlink:href="#Times-Roman-37"/>
       <use xlink:href="#Times-Roman-33" x="50"/>
       <use xlink:href="#Times-Roman-30" x="100"/>
      </g>
     </g>
    </g>
    <g id="xtick_5">
     <g id="line2d_9">
      <path d="M 286.60486 271.795914 
L 286.60486 12.565 
" clip-path="url(#p58d3734826)" style="fill: none; stroke: #b0b0b0; stroke-width: 0.8; stroke-linecap: square"/>
     </g>
     <g id="line2d_10">
      <g>
       <use xlink:href="#m0a18fa5e52" x="286.60486" y="271.795914" style="stroke: #000000; stroke-width: 0.8"/>
      </g>
     </g>
     <g id="text_5">
      <!-- 780 -->
      <g transform="translate(282.10486 282.909664) scale(0.06 -0.06)">
       <use xlink:href="#Times-Roman-37"/>
       <use xlink:href="#Times-Roman-38" x="50"/>
       <use xlink:href="#Times-Roman-30" x="100"/>
      </g>
     </g>
    </g>
    <g id="xtick_6">
     <g id="line2d_11">
      <path d="M 349.929746 271.795914 
L 349.929746 12.565 
" clip-path="url(#p58d3734826)" style="fill: none; stroke: #b0b0b0; stroke-width: 0.8; stroke-linecap: square"/>
     </g>
     <g id="line2d_12">
      <g>
       <use xlink:href="#m0a18fa5e52" x="349.929746" y="271.795914" style="stroke: #000000; stroke-width: 0.8"/>
      </g>
     </g>
     <g id="text_6">
      <!-- 830 -->
      <g transform="translate(345.429746 282.909664) scale(0.06 -0.06)">
       <use xlink:href="#Times-Roman-38"/>
       <use xlink:href="#Times-Roman-33" x="50"/>
       <use xlink:href="#Times-Roman-30" x="100"/>
      </g>
     </g>
    </g>
    <g id="xtick_7">
     <g id="line2d_13">
      <path d="M 413.254633 271.795914 
L 413.254633 12.565 
" clip-path="url(#p58d3734826)" style="fill: none; stroke: #b0b0b0; stroke-width: 0.8; stroke-linecap: square"/>
     </g>
     <g id="line2d_14">
      <g>
       <use xlink:href="#m0a18fa5e52" x="413.254633" y="271.795914" style="stroke: #000000; stroke-width: 0.8"/>
      </g>
     </g>
     <g id="text_7">
      <!-- 880 -->
      <g transform="translate(408.754633 282.909664) scale(0.06 -0.06)">
       <use xlink:href="#Times-Roman-38"/>
       <use xlink:href="#Times-Roman-38" x="50"/>
       <use xlink:href="#Times-Roman-30" x="100"/>
      </g>
     </g>
    </g>
    <g id="xtick_8">
     <g id="line2d_15">
      <path d="M 476.57952 271.795914 
L 476.57952 12.565 
" clip-path="url(#p58d3734826)" style="fill: none; stroke: #b0b0b0; stroke-width: 0.8; stroke-linecap: square"/>
     </g>
     <g id="line2d_16">
      <g>
       <use xlink:href="#m0a18fa5e52" x="476.57952" y="271.795914" style="stroke: #000000; stroke-width: 0.8"/>
      </g>
     </g>
     <g id="text_8">
      <!-- 930 -->
      <g transform="translate(472.07952 282.909664) scale(0.06 -0.06)">
       <defs>
        <path id="Times-Roman-39" d="M 1597 1791 
Q 1809 1791 2036 1909 
Q 2263 2028 2294 2109 
Q 2306 2141 2315 2342 
Q 2325 2544 2325 2669 
Q 2325 3319 2106 3725 
Q 1888 4131 1466 4131 
Q 1159 4131 970 3853 
Q 781 3575 781 3022 
Q 781 2566 957 2178 
Q 1134 1791 1597 1791 
z
M 1509 4309 
Q 2197 4309 2572 3761 
Q 2947 3213 2947 2538 
Q 2947 2063 2769 1572 
Q 2591 1081 2250 697 
Q 1853 253 1244 38 
Q 903 -84 384 -150 
L 353 -25 
Q 678 50 894 134 
Q 1281 288 1516 509 
Q 1847 825 2045 1214 
Q 2244 1603 2294 1866 
L 2184 1784 
Q 1953 1609 1641 1544 
Q 1478 1506 1344 1506 
Q 813 1506 502 1882 
Q 191 2259 191 2781 
Q 191 3447 561 3878 
Q 931 4309 1509 4309 
z
" transform="scale(0.015625)"/>
       </defs>
       <use xlink:href="#Times-Roman-39"/>
       <use xlink:href="#Times-Roman-33" x="50"/>
       <use xlink:href="#Times-Roman-30" x="100"/>
      </g>
     </g>
    </g>
    <g id="text_9">
     <!-- Age in Days -->
     <g transform="translate(234.945541 293.694039) scale(0.08 -0.08)">
      <defs>
       <path id="Times-Roman-41" d="M 2856 1644 
L 2116 3406 
L 1384 1644 
L 2856 1644 
z
M 94 0 
L 94 116 
Q 341 144 464 303 
Q 588 463 888 1169 
L 2222 4309 
L 2347 4309 
L 3941 681 
Q 4100 319 4195 233 
Q 4291 147 4516 116 
L 4516 0 
L 2888 0 
L 2888 116 
Q 3169 141 3250 177 
Q 3331 213 3331 353 
Q 3331 400 3300 519 
Q 3269 638 3213 769 
L 2947 1384 
L 1272 1384 
Q 1022 756 973 617 
Q 925 478 925 397 
Q 925 234 1056 172 
Q 1138 134 1363 116 
L 1363 0 
L 94 0 
z
M 2284 4309 
L 2284 4309 
z
" transform="scale(0.015625)"/>
       <path id="Times-Roman-67" d="M 628 -578 
Q 628 -841 923 -941 
Q 1219 -1041 1600 -1041 
Q 2119 -1041 2444 -861 
Q 2769 -681 2769 -419 
Q 2769 -209 2506 -141 
Q 2344 -100 1891 -94 
Q 1775 -91 1647 -86 
Q 1519 -81 1413 -75 
Q 1344 -72 1191 -50 
Q 1038 -28 963 -13 
Q 925 -13 778 -209 
Q 628 -409 628 -578 
z
M 1034 1050 
Q 750 1144 592 1384 
Q 434 1625 434 1925 
Q 434 2291 725 2619 
Q 1016 2947 1547 2947 
Q 1775 2947 2050 2839 
Q 2325 2731 2578 2731 
Q 2644 2731 2776 2736 
Q 2909 2741 2969 2741 
L 3006 2741 
L 3006 2488 
L 2466 2488 
Q 2522 2356 2553 2259 
Q 2606 2078 2606 1916 
Q 2606 1559 2311 1261 
Q 2016 963 1516 963 
Q 1438 963 1234 991 
Q 1144 991 995 837 
Q 847 684 847 588 
Q 847 488 1066 441 
Q 1209 409 1384 409 
Q 2188 409 2475 319 
Q 2947 172 2947 -313 
Q 2947 -806 2395 -1100 
Q 1844 -1394 1281 -1394 
Q 769 -1394 469 -1186 
Q 169 -978 169 -750 
Q 169 -638 248 -530 
Q 328 -422 563 -209 
L 769 -25 
L 806 13 
Q 663 69 591 122 
Q 466 219 466 344 
Q 466 459 573 598 
Q 681 738 1034 1050 
z
M 1628 1113 
Q 1800 1113 1916 1206 
Q 2103 1356 2103 1728 
Q 2103 2025 1951 2397 
Q 1800 2769 1447 2769 
Q 1141 2769 1025 2478 
Q 966 2325 966 2100 
Q 966 1719 1150 1416 
Q 1334 1113 1628 1113 
z
M 1603 2947 
L 1603 2947 
z
" transform="scale(0.015625)"/>
       <path id="Times-Roman-65" d="M 1466 2931 
Q 1906 2931 2237 2626 
Q 2569 2322 2569 1763 
L 584 1763 
Q 616 1038 912 706 
Q 1209 375 1616 375 
Q 1944 375 2169 547 
Q 2394 719 2584 1034 
L 2694 997 
Q 2566 600 2214 262 
Q 1863 -75 1353 -75 
Q 766 -75 445 369 
Q 125 813 125 1391 
Q 125 2019 497 2475 
Q 869 2931 1466 2931 
z
M 1284 2703 
Q 928 2703 741 2388 
Q 641 2219 597 1963 
L 1916 1963 
Q 1881 2275 1797 2428 
Q 1644 2703 1284 2703 
z
M 1425 2931 
L 1425 2931 
z
" transform="scale(0.015625)"/>
       <path id="Times-Roman-20" transform="scale(0.015625)"/>
       <path id="Times-Roman-69" d="M 525 4034 
Q 525 4169 619 4266 
Q 713 4363 850 4363 
Q 984 4363 1079 4267 
Q 1175 4172 1175 4034 
Q 1175 3900 1079 3804 
Q 984 3709 850 3709 
Q 713 3709 619 3804 
Q 525 3900 525 4034 
z
M 125 88 
Q 459 119 546 201 
Q 634 284 634 650 
L 634 2141 
Q 634 2344 606 2422 
Q 559 2550 409 2550 
Q 375 2550 342 2544 
Q 309 2538 153 2494 
L 153 2591 
L 288 2634 
Q 834 2813 1050 2903 
Q 1138 2941 1163 2941 
Q 1169 2919 1169 2894 
L 1169 650 
Q 1169 294 1255 203 
Q 1341 113 1644 88 
L 1644 0 
L 125 0 
L 125 88 
z
" transform="scale(0.015625)"/>
       <path id="Times-Roman-6e" d="M 116 88 
Q 338 116 427 198 
Q 516 281 516 569 
L 516 2153 
Q 516 2353 478 2434 
Q 419 2553 234 2553 
Q 206 2553 176 2550 
Q 147 2547 103 2541 
L 103 2650 
Q 231 2688 709 2844 
L 1003 2941 
Q 1025 2941 1029 2925 
Q 1034 2909 1034 2881 
L 1034 2422 
Q 1322 2691 1484 2791 
Q 1728 2944 1991 2944 
Q 2203 2944 2378 2822 
Q 2716 2584 2716 1975 
L 2716 516 
Q 2716 291 2806 191 
Q 2897 91 3109 88 
L 3109 0 
L 1775 0 
L 1775 88 
Q 2003 119 2093 214 
Q 2184 309 2184 628 
L 2184 1963 
Q 2184 2231 2084 2407 
Q 1984 2584 1716 2584 
Q 1531 2584 1341 2459 
Q 1234 2388 1066 2222 
L 1066 472 
Q 1066 247 1166 170 
Q 1266 94 1481 88 
L 1481 0 
L 116 0 
L 116 88 
z
M 1603 2944 
L 1603 2944 
z
" transform="scale(0.015625)"/>
       <path id="Times-Roman-44" d="M 1316 494 
Q 1316 338 1392 288 
Q 1469 238 1709 238 
Q 2459 238 2944 534 
Q 3688 991 3688 2094 
Q 3688 3078 3075 3575 
Q 2550 4000 1684 4000 
Q 1469 4000 1392 3953 
Q 1316 3906 1316 3747 
L 1316 494 
z
M 103 116 
Q 453 153 559 242 
Q 666 331 666 694 
L 666 3541 
Q 666 3891 562 3991 
Q 459 4091 103 4116 
L 103 4234 
L 1828 4234 
Q 2700 4234 3303 3947 
Q 4391 3431 4391 2103 
Q 4391 1625 4195 1194 
Q 4000 763 3606 466 
Q 3356 278 3088 181 
Q 2597 0 1881 0 
L 103 0 
L 103 116 
z
" transform="scale(0.015625)"/>
       <path id="Times-Roman-61" d="M 1834 1731 
Q 1475 1613 1241 1469 
Q 791 1191 791 838 
Q 791 553 978 419 
Q 1100 331 1250 331 
Q 1456 331 1645 447 
Q 1834 563 1834 741 
L 1834 1731 
z
M 234 622 
Q 234 1075 688 1378 
Q 975 1566 1834 1888 
L 1834 2153 
Q 1834 2472 1772 2597 
Q 1666 2806 1331 2806 
Q 1172 2806 1028 2725 
Q 884 2641 884 2494 
Q 884 2456 900 2367 
Q 916 2278 916 2253 
Q 916 2078 800 2009 
Q 734 1969 644 1969 
Q 503 1969 428 2061 
Q 353 2153 353 2266 
Q 353 2484 623 2723 
Q 894 2963 1416 2963 
Q 2022 2963 2238 2569 
Q 2353 2353 2353 1941 
L 2353 688 
Q 2353 506 2378 438 
Q 2419 316 2547 316 
Q 2619 316 2666 337 
Q 2713 359 2828 444 
L 2828 281 
Q 2728 159 2613 81 
Q 2438 -38 2256 -38 
Q 2044 -38 1948 100 
Q 1853 238 1844 428 
Q 1606 222 1438 122 
Q 1153 -47 897 -47 
Q 628 -47 431 142 
Q 234 331 234 622 
z
M 1425 2963 
L 1425 2963 
z
" transform="scale(0.015625)"/>
       <path id="Times-Roman-79" d="M 88 2872 
L 1406 2872 
L 1406 2775 
Q 1250 2772 1175 2747 
Q 1031 2706 1031 2588 
Q 1031 2544 1047 2498 
Q 1063 2453 1103 2363 
L 1834 741 
L 2422 2375 
Q 2431 2400 2451 2487 
Q 2472 2575 2472 2606 
Q 2472 2688 2415 2725 
Q 2359 2763 2272 2769 
L 2175 2775 
L 2175 2872 
L 3034 2872 
L 3034 2775 
Q 2906 2759 2842 2687 
Q 2778 2616 2731 2488 
L 1747 -119 
Q 1491 -794 1256 -1097 
Q 1022 -1400 663 -1400 
Q 488 -1400 334 -1312 
Q 181 -1225 181 -1034 
Q 181 -909 273 -829 
Q 366 -750 506 -750 
Q 588 -750 748 -809 
Q 909 -869 978 -869 
Q 1153 -869 1347 -462 
Q 1541 -56 1541 81 
Q 1541 109 1531 150 
Q 1522 191 1509 222 
L 509 2384 
Q 403 2616 323 2689 
Q 244 2763 88 2784 
L 88 2872 
z
M 1575 2931 
L 1575 2931 
z
" transform="scale(0.015625)"/>
       <path id="Times-Roman-73" d="M 331 984 
L 434 984 
Q 506 628 628 438 
Q 847 88 1269 88 
Q 1503 88 1639 217 
Q 1775 347 1775 553 
Q 1775 684 1697 806 
Q 1619 928 1422 1044 
L 1072 1244 
Q 688 1450 506 1659 
Q 325 1869 325 2153 
Q 325 2503 575 2728 
Q 825 2953 1203 2953 
Q 1369 2953 1567 2890 
Q 1766 2828 1791 2828 
Q 1847 2828 1872 2843 
Q 1897 2859 1916 2894 
L 1991 2894 
L 2013 2022 
L 1916 2022 
Q 1853 2325 1747 2494 
Q 1553 2806 1188 2806 
Q 969 2806 844 2672 
Q 719 2538 719 2356 
Q 719 2069 1150 1844 
L 1563 1622 
Q 2228 1259 2228 778 
Q 2228 409 1951 175 
Q 1675 -59 1228 -59 
Q 1041 -59 803 3 
Q 566 66 522 66 
Q 484 66 456 39 
Q 428 13 413 -25 
L 331 -25 
L 331 984 
z
M 1247 2953 
L 1247 2953 
z
" transform="scale(0.015625)"/>
      </defs>
      <use xlink:href="#Times-Roman-41"/>
      <use xlink:href="#Times-Roman-67" x="72.216797"/>
      <use xlink:href="#Times-Roman-65" x="122.216797"/>
      <use xlink:href="#Times-Roman-20" x="166.601562"/>
      <use xlink:href="#Times-Roman-69" x="191.601562"/>
      <use xlink:href="#Times-Roman-6e" x="219.384766"/>
      <use xlink:href="#Times-Roman-20" x="269.384766"/>
      <use xlink:href="#Times-Roman-44" x="294.384766"/>
      <use xlink:href="#Times-Roman-61" x="366.601562"/>
      <use xlink:href="#Times-Roman-79" x="410.986328"/>
      <use xlink:href="#Times-Roman-73" x="460.986328"/>
     </g>
    </g>
   </g>
   <g id="matplotlib.axis_2">
    <g id="ytick_1">
     <g id="line2d_17">
      <path d="M 33.305312 271.795914 
L 476.57952 271.795914 
" clip-path="url(#p58d3734826)" style="fill: none; stroke: #b0b0b0; stroke-width: 0.8; stroke-linecap: square"/>
     </g>
     <g id="line2d_18">
      <defs>
       <path id="m888cb686fc" d="M 0 0 
L -3.5 0 
" style="stroke: #000000; stroke-width: 0.8"/>
      </defs>
      <g>
       <use xlink:href="#m888cb686fc" x="33.305312" y="271.795914" style="stroke: #000000; stroke-width: 0.8"/>
      </g>
     </g>
     <g id="text_10">
      <!-- 30% -->
      <g transform="translate(15.3075 273.852789) scale(0.06 -0.06)">
       <defs>
        <path id="Times-Roman-25" d="M 1769 4234 
Q 1963 4234 2084 4184 
Q 2150 4159 2213 4103 
L 2331 3997 
Q 2403 3934 2534 3909 
Q 2666 3884 2803 3884 
Q 3163 3884 3466 4059 
Q 3628 4150 3806 4325 
L 4056 4325 
L 1591 -91 
L 1288 -91 
L 3516 3909 
Q 3281 3800 3165 3765 
Q 3050 3731 2859 3731 
Q 2691 3731 2569 3753 
Q 2491 3766 2413 3791 
Q 2438 3706 2447 3651 
Q 2456 3597 2456 3481 
Q 2456 2919 2079 2383 
Q 1703 1847 1156 1847 
Q 866 1847 628 2069 
Q 391 2291 391 2719 
Q 391 3234 809 3734 
Q 1228 4234 1769 4234 
z
M 3781 191 
Q 4163 191 4467 689 
Q 4772 1188 4772 1613 
Q 4772 1875 4644 2022 
Q 4516 2169 4309 2169 
Q 3938 2169 3647 1600 
Q 3356 1031 3356 616 
Q 3356 409 3475 300 
Q 3594 191 3781 191 
z
M 2872 872 
Q 2872 1413 3301 1892 
Q 3731 2372 4253 2372 
Q 4525 2372 4734 2209 
Q 4944 2047 4944 1606 
Q 4944 1134 4587 562 
Q 4231 -9 3647 -9 
Q 3331 -9 3101 205 
Q 2872 419 2872 872 
z
M 1272 2066 
Q 1656 2066 1975 2531 
Q 2294 2997 2294 3547 
Q 2294 3744 2251 3800 
Q 2209 3856 2103 3881 
Q 2028 3900 1926 3973 
Q 1825 4047 1803 4047 
Q 1500 4047 1186 3505 
Q 872 2963 872 2506 
Q 872 2300 970 2183 
Q 1069 2066 1272 2066 
z
" transform="scale(0.015625)"/>
       </defs>
       <use xlink:href="#Times-Roman-33"/>
       <use xlink:href="#Times-Roman-30" x="50"/>
       <use xlink:href="#Times-Roman-25" x="100"/>
      </g>
     </g>
    </g>
    <g id="ytick_2">
     <g id="line2d_19">
      <path d="M 33.305312 234.762926 
L 476.57952 234.762926 
" clip-path="url(#p58d3734826)" style="fill: none; stroke: #b0b0b0; stroke-width: 0.8; stroke-linecap: square"/>
     </g>
     <g id="line2d_20">
      <g>
       <use xlink:href="#m888cb686fc" x="33.305312" y="234.762926" style="stroke: #000000; stroke-width: 0.8"/>
      </g>
     </g>
     <g id="text_11">
      <!-- 40% -->
      <g transform="translate(15.3075 236.819801) scale(0.06 -0.06)">
       <defs>
        <path id="Times-Roman-34" d="M 1866 3650 
L 331 1481 
L 1866 1481 
L 1866 3650 
z
M 2072 4294 
L 2369 4294 
L 2369 1481 
L 3022 1481 
L 3022 1066 
L 2369 1066 
L 2369 0 
L 1872 0 
L 1872 1066 
L 72 1066 
L 72 1481 
L 2072 4294 
z
" transform="scale(0.015625)"/>
       </defs>
       <use xlink:href="#Times-Roman-34"/>
       <use xlink:href="#Times-Roman-30" x="50"/>
       <use xlink:href="#Times-Roman-25" x="100"/>
      </g>
     </g>
    </g>
    <g id="ytick_3">
     <g id="line2d_21">
      <path d="M 33.305312 197.729938 
L 476.57952 197.729938 
" clip-path="url(#p58d3734826)" style="fill: none; stroke: #b0b0b0; stroke-width: 0.8; stroke-linecap: square"/>
     </g>
     <g id="line2d_22">
      <g>
       <use xlink:href="#m888cb686fc" x="33.305312" y="197.729938" style="stroke: #000000; stroke-width: 0.8"/>
      </g>
     </g>
     <g id="text_12">
      <!-- 50% -->
      <g transform="translate(15.3075 199.786813) scale(0.06 -0.06)">
       <use xlink:href="#Times-Roman-35"/>
       <use xlink:href="#Times-Roman-30" x="50"/>
       <use xlink:href="#Times-Roman-25" x="100"/>
      </g>
     </g>
    </g>
    <g id="ytick_4">
     <g id="line2d_23">
      <path d="M 33.305312 160.696951 
L 476.57952 160.696951 
" clip-path="url(#p58d3734826)" style="fill: none; stroke: #b0b0b0; stroke-width: 0.8; stroke-linecap: square"/>
     </g>
     <g id="line2d_24">
      <g>
       <use xlink:href="#m888cb686fc" x="33.305312" y="160.696951" style="stroke: #000000; stroke-width: 0.8"/>
      </g>
     </g>
     <g id="text_13">
      <!-- 60% -->
      <g transform="translate(15.3075 162.753826) scale(0.06 -0.06)">
       <use xlink:href="#Times-Roman-36"/>
       <use xlink:href="#Times-Roman-30" x="50"/>
       <use xlink:href="#Times-Roman-25" x="100"/>
      </g>
     </g>
    </g>
    <g id="ytick_5">
     <g id="line2d_25">
      <path d="M 33.305312 123.663963 
L 476.57952 123.663963 
" clip-path="url(#p58d3734826)" style="fill: none; stroke: #b0b0b0; stroke-width: 0.8; stroke-linecap: square"/>
     </g>
     <g id="line2d_26">
      <g>
       <use xlink:href="#m888cb686fc" x="33.305312" y="123.663963" style="stroke: #000000; stroke-width: 0.8"/>
      </g>
     </g>
     <g id="text_14">
      <!-- 70% -->
      <g transform="translate(15.3075 125.720838) scale(0.06 -0.06)">
       <use xlink:href="#Times-Roman-37"/>
       <use xlink:href="#Times-Roman-30" x="50"/>
       <use xlink:href="#Times-Roman-25" x="100"/>
      </g>
     </g>
    </g>
    <g id="ytick_6">
     <g id="line2d_27">
      <path d="M 33.305312 86.630975 
L 476.57952 86.630975 
" clip-path="url(#p58d3734826)" style="fill: none; stroke: #b0b0b0; stroke-width: 0.8; stroke-linecap: square"/>
     </g>
     <g id="line2d_28">
      <g>
       <use xlink:href="#m888cb686fc" x="33.305312" y="86.630975" style="stroke: #000000; stroke-width: 0.8"/>
      </g>
     </g>
     <g id="text_15">
      <!-- 80% -->
      <g transform="translate(15.3075 88.68785) scale(0.06 -0.06)">
       <use xlink:href="#Times-Roman-38"/>
       <use xlink:href="#Times-Roman-30" x="50"/>
       <use xlink:href="#Times-Roman-25" x="100"/>
      </g>
     </g>
    </g>
    <g id="ytick_7">
     <g id="line2d_29">
      <path d="M 33.305312 49.597988 
L 476.57952 49.597988 
" clip-path="url(#p58d3734826)" style="fill: none; stroke: #b0b0b0; stroke-width: 0.8; stroke-linecap: square"/>
     </g>
     <g id="line2d_30">
      <g>
       <use xlink:href="#m888cb686fc" x="33.305312" y="49.597988" style="stroke: #000000; stroke-width: 0.8"/>
      </g>
     </g>
     <g id="text_16">
      <!-- 90% -->
      <g transform="translate(15.3075 51.654863) scale(0.06 -0.06)">
       <use xlink:href="#Times-Roman-39"/>
       <use xlink:href="#Times-Roman-30" x="50"/>
       <use xlink:href="#Times-Roman-25" x="100"/>
      </g>
     </g>
    </g>
    <g id="ytick_8">
     <g id="line2d_31">
      <path d="M 33.305312 12.565 
L 476.57952 12.565 
" clip-path="url(#p58d3734826)" style="fill: none; stroke: #b0b0b0; stroke-width: 0.8; stroke-linecap: square"/>
     </g>
     <g id="line2d_32">
      <g>
       <use xlink:href="#m888cb686fc" x="33.305312" y="12.565" style="stroke: #000000; stroke-width: 0.8"/>
      </g>
     </g>
     <g id="text_17">
      <!-- 100% -->
      <g transform="translate(12.3075 14.621875) scale(0.06 -0.06)">
       <defs>
        <path id="Times-Roman-31" d="M 1894 4294 
Q 1906 4278 1907 4270 
Q 1909 4263 1909 4234 
L 1909 472 
Q 1909 231 2037 165 
Q 2166 100 2516 88 
L 2516 0 
L 753 0 
L 753 94 
Q 1131 113 1247 197 
Q 1363 281 1363 563 
L 1363 3456 
Q 1363 3606 1325 3684 
Q 1288 3763 1163 3763 
Q 1081 3763 951 3717 
Q 822 3672 709 3622 
L 709 3709 
L 1856 4294 
L 1894 4294 
z
" transform="scale(0.015625)"/>
       </defs>
       <use xlink:href="#Times-Roman-31"/>
       <use xlink:href="#Times-Roman-30" x="50"/>
       <use xlink:href="#Times-Roman-30" x="100"/>
       <use xlink:href="#Times-Roman-25" x="150"/>
      </g>
     </g>
    </g>
    <g id="text_18">
     <!-- Survival -->
     <g transform="translate(6.565 155.734832) rotate(-90) scale(0.08 -0.08)">
      <defs>
       <path id="Times-Roman-53" d="M 413 1288 
Q 575 856 794 600 
Q 1175 153 1741 153 
Q 2047 153 2270 347 
Q 2494 541 2494 888 
Q 2494 1200 2269 1431 
Q 2122 1578 1650 1872 
L 1103 2213 
Q 856 2369 709 2528 
Q 438 2831 438 3197 
Q 438 3681 759 4003 
Q 1081 4325 1613 4325 
Q 1831 4325 2139 4217 
Q 2447 4109 2491 4109 
Q 2609 4109 2654 4165 
Q 2700 4222 2725 4325 
L 2856 4325 
L 2997 2963 
L 2844 2963 
Q 2688 3578 2342 3822 
Q 1997 4066 1659 4066 
Q 1397 4066 1201 3911 
Q 1006 3756 1006 3481 
Q 1006 3234 1156 3059 
Q 1306 2881 1622 2688 
L 2184 2341 
Q 2713 2016 2928 1744 
Q 3141 1469 3141 1094 
Q 3141 591 2761 253 
Q 2381 -84 1791 -84 
Q 1494 -84 1170 28 
Q 847 141 800 141 
Q 688 141 648 72 
Q 609 3 597 -75 
L 456 -75 
L 266 1288 
L 413 1288 
z
M 1781 4325 
L 1781 4325 
z
" transform="scale(0.015625)"/>
       <path id="Times-Roman-75" d="M 991 2894 
L 991 894 
Q 991 681 1050 553 
Q 1166 316 1475 316 
Q 1688 316 1891 456 
Q 2006 534 2125 672 
L 2125 2384 
Q 2125 2625 2031 2700 
Q 1938 2775 1656 2791 
L 1656 2894 
L 2666 2894 
L 2666 694 
Q 2666 481 2742 401 
Q 2819 322 3066 331 
L 3066 244 
Q 2894 197 2812 173 
Q 2731 150 2541 88 
Q 2459 59 2184 -47 
Q 2169 -47 2166 -33 
Q 2163 -19 2163 0 
L 2163 503 
Q 1950 250 1775 128 
Q 1509 -59 1213 -59 
Q 941 -59 700 134 
Q 456 325 456 775 
L 456 2397 
Q 456 2647 350 2731 
Q 281 2784 56 2806 
L 56 2894 
L 991 2894 
z
M 1603 2931 
L 1603 2931 
z
" transform="scale(0.015625)"/>
       <path id="Times-Roman-72" d="M 28 103 
Q 316 128 409 204 
Q 503 281 503 531 
L 503 1941 
Q 503 2250 445 2383 
Q 388 2516 234 2516 
Q 203 2516 151 2508 
Q 100 2500 44 2488 
L 44 2591 
Q 222 2653 409 2718 
Q 597 2784 669 2813 
Q 825 2872 991 2947 
Q 1013 2947 1017 2931 
Q 1022 2916 1022 2866 
L 1022 2353 
Q 1222 2631 1408 2787 
Q 1594 2944 1794 2944 
Q 1953 2944 2053 2848 
Q 2153 2753 2153 2609 
Q 2153 2481 2076 2393 
Q 2000 2306 1884 2306 
Q 1766 2306 1645 2415 
Q 1525 2525 1456 2525 
Q 1347 2525 1187 2348 
Q 1028 2172 1028 1984 
L 1028 575 
Q 1028 306 1153 201 
Q 1278 97 1569 103 
L 1569 0 
L 28 0 
L 28 103 
z
" transform="scale(0.015625)"/>
       <path id="Times-Roman-76" d="M 1375 2903 
L 1375 2806 
Q 1213 2788 1145 2756 
Q 1078 2725 1078 2619 
Q 1078 2569 1092 2523 
Q 1106 2478 1141 2391 
L 1791 775 
L 2353 2206 
Q 2394 2309 2430 2421 
Q 2466 2534 2466 2594 
Q 2466 2716 2350 2769 
Q 2281 2797 2163 2806 
L 2163 2903 
L 3050 2903 
L 3050 2806 
Q 2897 2794 2830 2705 
Q 2763 2616 2634 2294 
L 1731 44 
Q 1706 -16 1690 -37 
Q 1675 -59 1647 -59 
Q 1616 -59 1594 -23 
Q 1572 13 1547 66 
L 591 2353 
Q 475 2631 344 2731 
Q 266 2788 116 2806 
L 116 2903 
L 1375 2903 
z
" transform="scale(0.015625)"/>
       <path id="Times-Roman-6c" d="M 131 88 
Q 422 116 525 205 
Q 628 294 628 553 
L 628 3606 
Q 628 3813 594 3891 
Q 531 4022 341 4022 
Q 297 4022 245 4012 
Q 194 4003 116 3984 
L 116 4088 
Q 538 4200 1131 4388 
Q 1153 4388 1158 4369 
Q 1163 4350 1163 4288 
L 1163 541 
Q 1163 269 1256 189 
Q 1350 109 1644 88 
L 1644 0 
L 131 0 
L 131 88 
z
" transform="scale(0.015625)"/>
      </defs>
      <use xlink:href="#Times-Roman-53"/>
      <use xlink:href="#Times-Roman-75" x="55.615234"/>
      <use xlink:href="#Times-Roman-72" x="105.615234"/>
      <use xlink:href="#Times-Roman-76" x="138.916016"/>
      <use xlink:href="#Times-Roman-69" x="188.916016"/>
      <use xlink:href="#Times-Roman-76" x="216.699219"/>
      <use xlink:href="#Times-Roman-61" x="266.699219"/>
      <use xlink:href="#Times-Roman-6c" x="311.083984"/>
     </g>
    </g>
   </g>
   <g id="line2d_33">
    <path d="M 33.305312 12.565 
L 45.901519 12.565 
L 45.901519 20.712257 
L 54.606285 20.712257 
L 54.606285 28.970614 
L 72.680347 28.970614 
L 72.680347 36.673475 
L 122.986144 36.673475 
L 122.986144 44.931831 
L 206.723428 44.931831 
L 206.723428 52.634693 
L 213.896491 52.634693 
L 213.896491 61.078214 
L 220.219228 61.078214 
L 220.219228 69.410636 
L 234.519254 69.410636 
L 234.519254 77.298662 
L 240.654929 77.298662 
L 240.654929 85.594052 
L 279.08009 85.594052 
L 279.08009 93.704276 
L 284.791108 93.704276 
L 284.791108 101.629335 
L 303.886348 101.629335 
L 303.886348 109.628461 
L 303.886348 117.072091 
L 355.938138 117.072091 
L 355.938138 125.700777 
L 363.541178 125.700777 
L 363.541178 133.811002 
L 366.587991 133.811002 
L 366.587991 142.032325 
L 395.35864 142.032325 
L 395.35864 149.883318 
L 409.376617 149.883318 
" clip-path="url(#p58d3734826)" style="fill: none; stroke: #add8e6; stroke-width: 1.5; stroke-linecap: square"/>
    <defs>
     <path id="m7e1a76667f" d="M 0 3 
C 0.795609 3 1.55874 2.683901 2.12132 2.12132 
C 2.683901 1.55874 3 0.795609 3 0 
C 3 -0.795609 2.683901 -1.55874 2.12132 -2.12132 
C 1.55874 -2.683901 0.795609 -3 0 -3 
C -0.795609 -3 -1.55874 -2.683901 -2.12132 -2.12132 
C -2.683901 -1.55874 -3 -0.795609 -3 0 
C -3 0.795609 -2.683901 1.55874 -2.12132 2.12132 
C -1.55874 2.683901 -0.795609 3 0 3 
z
" style="stroke: #add8e6"/>
    </defs>
    <g clip-path="url(#p58d3734826)">
     <use xlink:href="#m7e1a76667f" x="33.305312" y="12.565" style="fill: #add8e6; stroke: #add8e6"/>
     <use xlink:href="#m7e1a76667f" x="45.901519" y="12.565" style="fill: #add8e6; stroke: #add8e6"/>
     <use xlink:href="#m7e1a76667f" x="45.901519" y="20.712257" style="fill: #add8e6; stroke: #add8e6"/>
     <use xlink:href="#m7e1a76667f" x="54.606285" y="20.712257" style="fill: #add8e6; stroke: #add8e6"/>
     <use xlink:href="#m7e1a76667f" x="54.606285" y="28.970614" style="fill: #add8e6; stroke: #add8e6"/>
     <use xlink:href="#m7e1a76667f" x="72.680347" y="28.970614" style="fill: #add8e6; stroke: #add8e6"/>
     <use xlink:href="#m7e1a76667f" x="72.680347" y="36.673475" style="fill: #add8e6; stroke: #add8e6"/>
     <use xlink:href="#m7e1a76667f" x="122.986144" y="36.673475" style="fill: #add8e6; stroke: #add8e6"/>
     <use xlink:href="#m7e1a76667f" x="122.986144" y="44.931831" style="fill: #add8e6; stroke: #add8e6"/>
     <use xlink:href="#m7e1a76667f" x="206.723428" y="44.931831" style="fill: #add8e6; stroke: #add8e6"/>
     <use xlink:href="#m7e1a76667f" x="206.723428" y="52.634693" style="fill: #add8e6; stroke: #add8e6"/>
     <use xlink:href="#m7e1a76667f" x="213.896491" y="52.634693" style="fill: #add8e6; stroke: #add8e6"/>
     <use xlink:href="#m7e1a76667f" x="213.896491" y="61.078214" style="fill: #add8e6; stroke: #add8e6"/>
     <use xlink:href="#m7e1a76667f" x="220.219228" y="61.078214" style="fill: #add8e6; stroke: #add8e6"/>
     <use xlink:href="#m7e1a76667f" x="220.219228" y="69.410636" style="fill: #add8e6; stroke: #add8e6"/>
     <use xlink:href="#m7e1a76667f" x="234.519254" y="69.410636" style="fill: #add8e6; stroke: #add8e6"/>
     <use xlink:href="#m7e1a76667f" x="234.519254" y="77.298662" style="fill: #add8e6; stroke: #add8e6"/>
     <use xlink:href="#m7e1a76667f" x="240.654929" y="77.298662" style="fill: #add8e6; stroke: #add8e6"/>
     <use xlink:href="#m7e1a76667f" x="240.654929" y="85.594052" style="fill: #add8e6; stroke: #add8e6"/>
     <use xlink:href="#m7e1a76667f" x="279.08009" y="85.594052" style="fill: #add8e6; stroke: #add8e6"/>
     <use xlink:href="#m7e1a76667f" x="279.08009" y="93.704276" style="fill: #add8e6; stroke: #add8e6"/>
     <use xlink:href="#m7e1a76667f" x="284.791108" y="93.704276" style="fill: #add8e6; stroke: #add8e6"/>
     <use xlink:href="#m7e1a76667f" x="284.791108" y="101.629335" style="fill: #add8e6; stroke: #add8e6"/>
     <use xlink:href="#m7e1a76667f" x="303.886348" y="101.629335" style="fill: #add8e6; stroke: #add8e6"/>
     <use xlink:href="#m7e1a76667f" x="303.886348" y="109.628461" style="fill: #add8e6; stroke: #add8e6"/>
     <use xlink:href="#m7e1a76667f" x="303.886348" y="117.072091" style="fill: #add8e6; stroke: #add8e6"/>
     <use xlink:href="#m7e1a76667f" x="355.938138" y="117.072091" style="fill: #add8e6; stroke: #add8e6"/>
     <use xlink:href="#m7e1a76667f" x="355.938138" y="125.700777" style="fill: #add8e6; stroke: #add8e6"/>
     <use xlink:href="#m7e1a76667f" x="363.541178" y="125.700777" style="fill: #add8e6; stroke: #add8e6"/>
     <use xlink:href="#m7e1a76667f" x="363.541178" y="133.811002" style="fill: #add8e6; stroke: #add8e6"/>
     <use xlink:href="#m7e1a76667f" x="366.587991" y="133.811002" style="fill: #add8e6; stroke: #add8e6"/>
     <use xlink:href="#m7e1a76667f" x="366.587991" y="142.032325" style="fill: #add8e6; stroke: #add8e6"/>
     <use xlink:href="#m7e1a76667f" x="395.35864" y="142.032325" style="fill: #add8e6; stroke: #add8e6"/>
     <use xlink:href="#m7e1a76667f" x="395.35864" y="149.883318" style="fill: #add8e6; stroke: #add8e6"/>
     <use xlink:href="#m7e1a76667f" x="409.376617" y="149.883318" style="fill: #add8e6; stroke: #add8e6"/>
    </g>
   </g>
   <g id="line2d_34">
    <path d="M 33.305312 12.565 
L 33.305312 20.230828 
L 36.390754 20.230828 
L 55.547799 20.230828 
L 55.547799 27.970723 
L 158.60348 27.970723 
L 158.60348 36.155013 
L 187.521296 36.155013 
L 187.521296 42.895017 
L 198.026261 42.895017 
L 198.026261 50.74601 
L 244.562327 50.74601 
L 244.562327 59.115465 
L 261.16396 59.115465 
L 261.16396 66.85536 
L 269.537916 66.85536 
L 269.537916 74.150858 
L 274.692815 74.150858 
L 274.692815 81.705588 
L 322.066163 81.705588 
L 322.066163 89.889878 
L 358.554469 89.889878 
L 358.554469 97.333509 
L 370.051483 97.333509 
L 370.051483 105.480766 
L 400.281137 105.480766 
L 400.281137 112.850331 
L 409.174484 112.850331 
" clip-path="url(#p58d3734826)" style="fill: none; stroke: #008000; stroke-width: 1.5; stroke-linecap: square"/>
    <defs>
     <path id="m2f687e034a" d="M 0 3 
C 0.795609 3 1.55874 2.683901 2.12132 2.12132 
C 2.683901 1.55874 3 0.795609 3 0 
C 3 -0.795609 2.683901 -1.55874 2.12132 -2.12132 
C 1.55874 -2.683901 0.795609 -3 0 -3 
C -0.795609 -3 -1.55874 -2.683901 -2.12132 -2.12132 
C -2.683901 -1.55874 -3 -0.795609 -3 0 
C -3 0.795609 -2.683901 1.55874 -2.12132 2.12132 
C -1.55874 2.683901 -0.795609 3 0 3 
z
" style="stroke: #008000"/>
    </defs>
    <g clip-path="url(#p58d3734826)">
     <use xlink:href="#m2f687e034a" x="33.305312" y="12.565" style="fill: #008000; stroke: #008000"/>
     <use xlink:href="#m2f687e034a" x="33.305312" y="20.230828" style="fill: #008000; stroke: #008000"/>
     <use xlink:href="#m2f687e034a" x="36.390754" y="20.230828" style="fill: #008000; stroke: #008000"/>
     <use xlink:href="#m2f687e034a" x="55.547799" y="20.230828" style="fill: #008000; stroke: #008000"/>
     <use xlink:href="#m2f687e034a" x="55.547799" y="27.970723" style="fill: #008000; stroke: #008000"/>
     <use xlink:href="#m2f687e034a" x="158.60348" y="27.970723" style="fill: #008000; stroke: #008000"/>
     <use xlink:href="#m2f687e034a" x="158.60348" y="36.155013" style="fill: #008000; stroke: #008000"/>
     <use xlink:href="#m2f687e034a" x="187.521296" y="36.155013" style="fill: #008000; stroke: #008000"/>
     <use xlink:href="#m2f687e034a" x="187.521296" y="42.895017" style="fill: #008000; stroke: #008000"/>
     <use xlink:href="#m2f687e034a" x="198.026261" y="42.895017" style="fill: #008000; stroke: #008000"/>
     <use xlink:href="#m2f687e034a" x="198.026261" y="50.74601" style="fill: #008000; stroke: #008000"/>
     <use xlink:href="#m2f687e034a" x="244.562327" y="50.74601" style="fill: #008000; stroke: #008000"/>
     <use xlink:href="#m2f687e034a" x="244.562327" y="59.115465" style="fill: #008000; stroke: #008000"/>
     <use xlink:href="#m2f687e034a" x="261.16396" y="59.115465" style="fill: #008000; stroke: #008000"/>
     <use xlink:href="#m2f687e034a" x="261.16396" y="66.85536" style="fill: #008000; stroke: #008000"/>
     <use xlink:href="#m2f687e034a" x="269.537916" y="66.85536" style="fill: #008000; stroke: #008000"/>
     <use xlink:href="#m2f687e034a" x="269.537916" y="74.150858" style="fill: #008000; stroke: #008000"/>
     <use xlink:href="#m2f687e034a" x="274.692815" y="74.150858" style="fill: #008000; stroke: #008000"/>
     <use xlink:href="#m2f687e034a" x="274.692815" y="81.705588" style="fill: #008000; stroke: #008000"/>
     <use xlink:href="#m2f687e034a" x="322.066163" y="81.705588" style="fill: #008000; stroke: #008000"/>
     <use xlink:href="#m2f687e034a" x="322.066163" y="89.889878" style="fill: #008000; stroke: #008000"/>
     <use xlink:href="#m2f687e034a" x="358.554469" y="89.889878" style="fill: #008000; stroke: #008000"/>
     <use xlink:href="#m2f687e034a" x="358.554469" y="97.333509" style="fill: #008000; stroke: #008000"/>
     <use xlink:href="#m2f687e034a" x="370.051483" y="97.333509" style="fill: #008000; stroke: #008000"/>
     <use xlink:href="#m2f687e034a" x="370.051483" y="105.480766" style="fill: #008000; stroke: #008000"/>
     <use xlink:href="#m2f687e034a" x="400.281137" y="105.480766" style="fill: #008000; stroke: #008000"/>
     <use xlink:href="#m2f687e034a" x="400.281137" y="112.850331" style="fill: #008000; stroke: #008000"/>
     <use xlink:href="#m2f687e034a" x="409.174484" y="112.850331" style="fill: #008000; stroke: #008000"/>
    </g>
   </g>
   <g id="line2d_35">
    <path d="M 33.305312 12.565 
L 33.305312 12.639066 
L 96.252403 12.639066 
L 96.252403 22.452808 
L 180.41523 22.452808 
L 180.41523 31.933253 
L 210.114222 31.933253 
L 210.114222 40.82117 
L 262.309 40.82117 
L 262.309 50.560845 
L 268.889343 50.560845 
L 268.889343 60.004257 
L 310.842587 60.004257 
L 310.842587 69.669867 
L 318.410671 69.669867 
L 318.410671 78.779982 
L 335.788413 78.779982 
L 335.788413 88.66779 
L 343.172221 88.66779 
L 343.172221 97.814938 
L 359.835025 97.814938 
L 359.835025 107.999009 
L 359.835025 117.257256 
L 362.507589 117.257256 
L 376.298356 117.257256 
L 376.298356 126.589569 
L 391.472012 126.589569 
" clip-path="url(#p58d3734826)" style="fill: none; stroke: #ffd700; stroke-width: 1.5; stroke-linecap: square"/>
    <defs>
     <path id="m53a952ec54" d="M 0 3 
C 0.795609 3 1.55874 2.683901 2.12132 2.12132 
C 2.683901 1.55874 3 0.795609 3 0 
C 3 -0.795609 2.683901 -1.55874 2.12132 -2.12132 
C 1.55874 -2.683901 0.795609 -3 0 -3 
C -0.795609 -3 -1.55874 -2.683901 -2.12132 -2.12132 
C -2.683901 -1.55874 -3 -0.795609 -3 0 
C -3 0.795609 -2.683901 1.55874 -2.12132 2.12132 
C -1.55874 2.683901 -0.795609 3 0 3 
z
" style="stroke: #ffd700"/>
    </defs>
    <g clip-path="url(#p58d3734826)">
     <use xlink:href="#m53a952ec54" x="33.305312" y="12.565" style="fill: #ffd700; stroke: #ffd700"/>
     <use xlink:href="#m53a952ec54" x="33.305312" y="12.639066" style="fill: #ffd700; stroke: #ffd700"/>
     <use xlink:href="#m53a952ec54" x="96.252403" y="12.639066" style="fill: #ffd700; stroke: #ffd700"/>
     <use xlink:href="#m53a952ec54" x="96.252403" y="22.452808" style="fill: #ffd700; stroke: #ffd700"/>
     <use xlink:href="#m53a952ec54" x="180.41523" y="22.452808" style="fill: #ffd700; stroke: #ffd700"/>
     <use xlink:href="#m53a952ec54" x="180.41523" y="31.933253" style="fill: #ffd700; stroke: #ffd700"/>
     <use xlink:href="#m53a952ec54" x="210.114222" y="31.933253" style="fill: #ffd700; stroke: #ffd700"/>
     <use xlink:href="#m53a952ec54" x="210.114222" y="40.82117" style="fill: #ffd700; stroke: #ffd700"/>
     <use xlink:href="#m53a952ec54" x="262.309" y="40.82117" style="fill: #ffd700; stroke: #ffd700"/>
     <use xlink:href="#m53a952ec54" x="262.309" y="50.560845" style="fill: #ffd700; stroke: #ffd700"/>
     <use xlink:href="#m53a952ec54" x="268.889343" y="50.560845" style="fill: #ffd700; stroke: #ffd700"/>
     <use xlink:href="#m53a952ec54" x="268.889343" y="60.004257" style="fill: #ffd700; stroke: #ffd700"/>
     <use xlink:href="#m53a952ec54" x="310.842587" y="60.004257" style="fill: #ffd700; stroke: #ffd700"/>
     <use xlink:href="#m53a952ec54" x="310.842587" y="69.669867" style="fill: #ffd700; stroke: #ffd700"/>
     <use xlink:href="#m53a952ec54" x="318.410671" y="69.669867" style="fill: #ffd700; stroke: #ffd700"/>
     <use xlink:href="#m53a952ec54" x="318.410671" y="78.779982" style="fill: #ffd700; stroke: #ffd700"/>
     <use xlink:href="#m53a952ec54" x="335.788413" y="78.779982" style="fill: #ffd700; stroke: #ffd700"/>
     <use xlink:href="#m53a952ec54" x="335.788413" y="88.66779" style="fill: #ffd700; stroke: #ffd700"/>
     <use xlink:href="#m53a952ec54" x="343.172221" y="88.66779" style="fill: #ffd700; stroke: #ffd700"/>
     <use xlink:href="#m53a952ec54" x="343.172221" y="97.814938" style="fill: #ffd700; stroke: #ffd700"/>
     <use xlink:href="#m53a952ec54" x="359.835025" y="97.814938" style="fill: #ffd700; stroke: #ffd700"/>
     <use xlink:href="#m53a952ec54" x="359.835025" y="107.999009" style="fill: #ffd700; stroke: #ffd700"/>
     <use xlink:href="#m53a952ec54" x="359.835025" y="117.257256" style="fill: #ffd700; stroke: #ffd700"/>
     <use xlink:href="#m53a952ec54" x="362.507589" y="117.257256" style="fill: #ffd700; stroke: #ffd700"/>
     <use xlink:href="#m53a952ec54" x="376.298356" y="117.257256" style="fill: #ffd700; stroke: #ffd700"/>
     <use xlink:href="#m53a952ec54" x="376.298356" y="126.589569" style="fill: #ffd700; stroke: #ffd700"/>
     <use xlink:href="#m53a952ec54" x="391.472012" y="126.589569" style="fill: #ffd700; stroke: #ffd700"/>
    </g>
   </g>
   <g id="line2d_36">
    <path d="M 33.305312 12.565 
L 33.305312 12.639066 
L 63.421742 12.639066 
L 63.421742 19.712367 
L 71.621428 19.712367 
L 71.621428 26.933799 
L 153.217191 26.933799 
L 153.217191 33.710836 
L 153.217191 33.933034 
L 153.217191 40.673038 
L 196.214916 40.673038 
L 196.214916 48.375899 
L 205.524814 48.375899 
L 205.524814 55.07887 
L 220.444791 55.07887 
L 220.444791 62.485467 
L 260.798575 62.485467 
L 260.798575 68.96624 
L 264.869985 68.96624 
L 264.869985 75.669211 
L 268.542449 75.669211 
L 268.542449 82.631413 
L 268.542449 89.889878 
L 286.077363 89.889878 
L 286.077363 96.85208 
L 308.973996 96.85208 
L 308.973996 103.480985 
L 333.247565 103.480985 
L 333.247565 110.702417 
L 340.252311 110.702417 
L 340.252311 117.590553 
L 349.323094 117.590553 
L 349.323094 124.441656 
L 368.640731 124.441656 
L 368.640731 131.551989 
L 379.863927 131.551989 
L 379.863927 138.662323 
L 391.635137 138.662323 
" clip-path="url(#p58d3734826)" style="fill: none; stroke: #800080; stroke-width: 1.5; stroke-linecap: square"/>
    <defs>
     <path id="m9fa5984225" d="M 0 3 
C 0.795609 3 1.55874 2.683901 2.12132 2.12132 
C 2.683901 1.55874 3 0.795609 3 0 
C 3 -0.795609 2.683901 -1.55874 2.12132 -2.12132 
C 1.55874 -2.683901 0.795609 -3 0 -3 
C -0.795609 -3 -1.55874 -2.683901 -2.12132 -2.12132 
C -2.683901 -1.55874 -3 -0.795609 -3 0 
C -3 0.795609 -2.683901 1.55874 -2.12132 2.12132 
C -1.55874 2.683901 -0.795609 3 0 3 
z
" style="stroke: #800080"/>
    </defs>
    <g clip-path="url(#p58d3734826)">
     <use xlink:href="#m9fa5984225" x="33.305312" y="12.565" style="fill: #800080; stroke: #800080"/>
     <use xlink:href="#m9fa5984225" x="33.305312" y="12.639066" style="fill: #800080; stroke: #800080"/>
     <use xlink:href="#m9fa5984225" x="63.421742" y="12.639066" style="fill: #800080; stroke: #800080"/>
     <use xlink:href="#m9fa5984225" x="63.421742" y="19.712367" style="fill: #800080; stroke: #800080"/>
     <use xlink:href="#m9fa5984225" x="71.621428" y="19.712367" style="fill: #800080; stroke: #800080"/>
     <use xlink:href="#m9fa5984225" x="71.621428" y="26.933799" style="fill: #800080; stroke: #800080"/>
     <use xlink:href="#m9fa5984225" x="153.217191" y="26.933799" style="fill: #800080; stroke: #800080"/>
     <use xlink:href="#m9fa5984225" x="153.217191" y="33.710836" style="fill: #800080; stroke: #800080"/>
     <use xlink:href="#m9fa5984225" x="153.217191" y="33.933034" style="fill: #800080; stroke: #800080"/>
     <use xlink:href="#m9fa5984225" x="153.217191" y="40.673038" style="fill: #800080; stroke: #800080"/>
     <use xlink:href="#m9fa5984225" x="196.214916" y="40.673038" style="fill: #800080; stroke: #800080"/>
     <use xlink:href="#m9fa5984225" x="196.214916" y="48.375899" style="fill: #800080; stroke: #800080"/>
     <use xlink:href="#m9fa5984225" x="205.524814" y="48.375899" style="fill: #800080; stroke: #800080"/>
     <use xlink:href="#m9fa5984225" x="205.524814" y="55.07887" style="fill: #800080; stroke: #800080"/>
     <use xlink:href="#m9fa5984225" x="220.444791" y="55.07887" style="fill: #800080; stroke: #800080"/>
     <use xlink:href="#m9fa5984225" x="220.444791" y="62.485467" style="fill: #800080; stroke: #800080"/>
     <use xlink:href="#m9fa5984225" x="260.798575" y="62.485467" style="fill: #800080; stroke: #800080"/>
     <use xlink:href="#m9fa5984225" x="260.798575" y="68.96624" style="fill: #800080; stroke: #800080"/>
     <use xlink:href="#m9fa5984225" x="264.869985" y="68.96624" style="fill: #800080; stroke: #800080"/>
     <use xlink:href="#m9fa5984225" x="264.869985" y="75.669211" style="fill: #800080; stroke: #800080"/>
     <use xlink:href="#m9fa5984225" x="268.542449" y="75.669211" style="fill: #800080; stroke: #800080"/>
     <use xlink:href="#m9fa5984225" x="268.542449" y="82.631413" style="fill: #800080; stroke: #800080"/>
     <use xlink:href="#m9fa5984225" x="268.542449" y="89.889878" style="fill: #800080; stroke: #800080"/>
     <use xlink:href="#m9fa5984225" x="286.077363" y="89.889878" style="fill: #800080; stroke: #800080"/>
     <use xlink:href="#m9fa5984225" x="286.077363" y="96.85208" style="fill: #800080; stroke: #800080"/>
     <use xlink:href="#m9fa5984225" x="308.973996" y="96.85208" style="fill: #800080; stroke: #800080"/>
     <use xlink:href="#m9fa5984225" x="308.973996" y="103.480985" style="fill: #800080; stroke: #800080"/>
     <use xlink:href="#m9fa5984225" x="333.247565" y="103.480985" style="fill: #800080; stroke: #800080"/>
     <use xlink:href="#m9fa5984225" x="333.247565" y="110.702417" style="fill: #800080; stroke: #800080"/>
     <use xlink:href="#m9fa5984225" x="340.252311" y="110.702417" style="fill: #800080; stroke: #800080"/>
     <use xlink:href="#m9fa5984225" x="340.252311" y="117.590553" style="fill: #800080; stroke: #800080"/>
     <use xlink:href="#m9fa5984225" x="349.323094" y="117.590553" style="fill: #800080; stroke: #800080"/>
     <use xlink:href="#m9fa5984225" x="349.323094" y="124.441656" style="fill: #800080; stroke: #800080"/>
     <use xlink:href="#m9fa5984225" x="368.640731" y="124.441656" style="fill: #800080; stroke: #800080"/>
     <use xlink:href="#m9fa5984225" x="368.640731" y="131.551989" style="fill: #800080; stroke: #800080"/>
     <use xlink:href="#m9fa5984225" x="379.863927" y="131.551989" style="fill: #800080; stroke: #800080"/>
     <use xlink:href="#m9fa5984225" x="379.863927" y="138.662323" style="fill: #800080; stroke: #800080"/>
     <use xlink:href="#m9fa5984225" x="391.635137" y="138.662323" style="fill: #800080; stroke: #800080"/>
    </g>
   </g>
   <g id="line2d_37">
    <path d="M 33.305312 12.565 
L 40.145667 12.565 
L 40.145667 20.971488 
L 104.134198 20.971488 
L 104.134198 29.415009 
L 167.62639 29.415009 
L 167.62639 36.821607 
L 199.06365 36.821607 
L 199.06365 44.561501 
L 215.293438 44.561501 
L 215.293438 52.412495 
L 215.293438 60.670851 
L 233.201336 60.670851 
L 233.201336 68.669976 
L 233.201336 76.595036 
L 233.201336 85.038557 
L 235.94305 85.038557 
L 252.149409 85.038557 
L 252.149409 92.815484 
L 259.199748 92.815484 
L 259.199748 100.962742 
L 269.056267 100.962742 
L 269.056267 109.554395 
L 278.765745 109.554395 
L 278.765745 117.886817 
L 284.946634 117.886817 
L 284.946634 124.960118 
L 284.946634 125.293414 
L 284.946634 133.181441 
L 323.143446 133.181441 
L 323.143446 141.365731 
L 349.376414 141.365731 
L 349.376414 149.550021 
L 359.734339 149.550021 
L 359.734339 157.438048 
L 364.645564 157.438048 
L 364.645564 165.585305 
L 374.097563 165.585305 
" clip-path="url(#p58d3734826)" style="fill: none; stroke: #ff7f50; stroke-width: 1.5; stroke-linecap: square"/>
    <defs>
     <path id="mba25094248" d="M 0 3 
C 0.795609 3 1.55874 2.683901 2.12132 2.12132 
C 2.683901 1.55874 3 0.795609 3 0 
C 3 -0.795609 2.683901 -1.55874 2.12132 -2.12132 
C 1.55874 -2.683901 0.795609 -3 0 -3 
C -0.795609 -3 -1.55874 -2.683901 -2.12132 -2.12132 
C -2.683901 -1.55874 -3 -0.795609 -3 0 
C -3 0.795609 -2.683901 1.55874 -2.12132 2.12132 
C -1.55874 2.683901 -0.795609 3 0 3 
z
" style="stroke: #ff7f50"/>
    </defs>
    <g clip-path="url(#p58d3734826)">
     <use xlink:href="#mba25094248" x="33.305312" y="12.565" style="fill: #ff7f50; stroke: #ff7f50"/>
     <use xlink:href="#mba25094248" x="40.145667" y="12.565" style="fill: #ff7f50; stroke: #ff7f50"/>
     <use xlink:href="#mba25094248" x="40.145667" y="20.971488" style="fill: #ff7f50; stroke: #ff7f50"/>
     <use xlink:href="#mba25094248" x="104.134198" y="20.971488" style="fill: #ff7f50; stroke: #ff7f50"/>
     <use xlink:href="#mba25094248" x="104.134198" y="29.415009" style="fill: #ff7f50; stroke: #ff7f50"/>
     <use xlink:href="#mba25094248" x="167.62639" y="29.415009" style="fill: #ff7f50; stroke: #ff7f50"/>
     <use xlink:href="#mba25094248" x="167.62639" y="36.821607" style="fill: #ff7f50; stroke: #ff7f50"/>
     <use xlink:href="#mba25094248" x="199.06365" y="36.821607" style="fill: #ff7f50; stroke: #ff7f50"/>
     <use xlink:href="#mba25094248" x="199.06365" y="44.561501" style="fill: #ff7f50; stroke: #ff7f50"/>
     <use xlink:href="#mba25094248" x="215.293438" y="44.561501" style="fill: #ff7f50; stroke: #ff7f50"/>
     <use xlink:href="#mba25094248" x="215.293438" y="52.412495" style="fill: #ff7f50; stroke: #ff7f50"/>
     <use xlink:href="#mba25094248" x="215.293438" y="60.670851" style="fill: #ff7f50; stroke: #ff7f50"/>
     <use xlink:href="#mba25094248" x="233.201336" y="60.670851" style="fill: #ff7f50; stroke: #ff7f50"/>
     <use xlink:href="#mba25094248" x="233.201336" y="68.669976" style="fill: #ff7f50; stroke: #ff7f50"/>
     <use xlink:href="#mba25094248" x="233.201336" y="76.595036" style="fill: #ff7f50; stroke: #ff7f50"/>
     <use xlink:href="#mba25094248" x="233.201336" y="85.038557" style="fill: #ff7f50; stroke: #ff7f50"/>
     <use xlink:href="#mba25094248" x="235.94305" y="85.038557" style="fill: #ff7f50; stroke: #ff7f50"/>
     <use xlink:href="#mba25094248" x="252.149409" y="85.038557" style="fill: #ff7f50; stroke: #ff7f50"/>
     <use xlink:href="#mba25094248" x="252.149409" y="92.815484" style="fill: #ff7f50; stroke: #ff7f50"/>
     <use xlink:href="#mba25094248" x="259.199748" y="92.815484" style="fill: #ff7f50; stroke: #ff7f50"/>
     <use xlink:href="#mba25094248" x="259.199748" y="100.962742" style="fill: #ff7f50; stroke: #ff7f50"/>
     <use xlink:href="#mba25094248" x="269.056267" y="100.962742" style="fill: #ff7f50; stroke: #ff7f50"/>
     <use xlink:href="#mba25094248" x="269.056267" y="109.554395" style="fill: #ff7f50; stroke: #ff7f50"/>
     <use xlink:href="#mba25094248" x="278.765745" y="109.554395" style="fill: #ff7f50; stroke: #ff7f50"/>
     <use xlink:href="#mba25094248" x="278.765745" y="117.886817" style="fill: #ff7f50; stroke: #ff7f50"/>
     <use xlink:href="#mba25094248" x="284.946634" y="117.886817" style="fill: #ff7f50; stroke: #ff7f50"/>
     <use xlink:href="#mba25094248" x="284.946634" y="124.960118" style="fill: #ff7f50; stroke: #ff7f50"/>
     <use xlink:href="#mba25094248" x="284.946634" y="125.293414" style="fill: #ff7f50; stroke: #ff7f50"/>
     <use xlink:href="#mba25094248" x="284.946634" y="133.181441" style="fill: #ff7f50; stroke: #ff7f50"/>
     <use xlink:href="#mba25094248" x="323.143446" y="133.181441" style="fill: #ff7f50; stroke: #ff7f50"/>
     <use xlink:href="#mba25094248" x="323.143446" y="141.365731" style="fill: #ff7f50; stroke: #ff7f50"/>
     <use xlink:href="#mba25094248" x="349.376414" y="141.365731" style="fill: #ff7f50; stroke: #ff7f50"/>
     <use xlink:href="#mba25094248" x="349.376414" y="149.550021" style="fill: #ff7f50; stroke: #ff7f50"/>
     <use xlink:href="#mba25094248" x="359.734339" y="149.550021" style="fill: #ff7f50; stroke: #ff7f50"/>
     <use xlink:href="#mba25094248" x="359.734339" y="157.438048" style="fill: #ff7f50; stroke: #ff7f50"/>
     <use xlink:href="#mba25094248" x="364.645564" y="157.438048" style="fill: #ff7f50; stroke: #ff7f50"/>
     <use xlink:href="#mba25094248" x="364.645564" y="165.585305" style="fill: #ff7f50; stroke: #ff7f50"/>
     <use xlink:href="#mba25094248" x="374.097563" y="165.585305" style="fill: #ff7f50; stroke: #ff7f50"/>
    </g>
   </g>
   <g id="line2d_38">
    <path d="M 33.305312 12.565 
L 33.305312 12.639066 
L 52.018196 12.639066 
L 52.018196 19.897532 
L 177.477715 19.897532 
L 177.477715 27.896657 
L 206.073715 27.896657 
L 206.073715 35.081056 
L 257.06076 35.081056 
L 257.06076 42.339522 
L 274.110606 42.339522 
L 274.110606 49.560955 
L 276.848774 49.560955 
L 320.640973 49.560955 
L 320.640973 64.00382 
L 347.316328 64.00382 
L 347.316328 72.447341 
L 356.305169 72.447341 
" clip-path="url(#p58d3734826)" style="fill: none; stroke: #40e0d0; stroke-width: 1.5; stroke-linecap: square"/>
    <defs>
     <path id="m43efcfbd68" d="M 0 3 
C 0.795609 3 1.55874 2.683901 2.12132 2.12132 
C 2.683901 1.55874 3 0.795609 3 0 
C 3 -0.795609 2.683901 -1.55874 2.12132 -2.12132 
C 1.55874 -2.683901 0.795609 -3 0 -3 
C -0.795609 -3 -1.55874 -2.683901 -2.12132 -2.12132 
C -2.683901 -1.55874 -3 -0.795609 -3 0 
C -3 0.795609 -2.683901 1.55874 -2.12132 2.12132 
C -1.55874 2.683901 -0.795609 3 0 3 
z
" style="stroke: #40e0d0"/>
    </defs>
    <g clip-path="url(#p58d3734826)">
     <use xlink:href="#m43efcfbd68" x="33.305312" y="12.565" style="fill: #40e0d0; stroke: #40e0d0"/>
     <use xlink:href="#m43efcfbd68" x="33.305312" y="12.639066" style="fill: #40e0d0; stroke: #40e0d0"/>
     <use xlink:href="#m43efcfbd68" x="52.018196" y="12.639066" style="fill: #40e0d0; stroke: #40e0d0"/>
     <use xlink:href="#m43efcfbd68" x="52.018196" y="19.897532" style="fill: #40e0d0; stroke: #40e0d0"/>
     <use xlink:href="#m43efcfbd68" x="177.477715" y="19.897532" style="fill: #40e0d0; stroke: #40e0d0"/>
     <use xlink:href="#m43efcfbd68" x="177.477715" y="27.896657" style="fill: #40e0d0; stroke: #40e0d0"/>
     <use xlink:href="#m43efcfbd68" x="206.073715" y="27.896657" style="fill: #40e0d0; stroke: #40e0d0"/>
     <use xlink:href="#m43efcfbd68" x="206.073715" y="35.081056" style="fill: #40e0d0; stroke: #40e0d0"/>
     <use xlink:href="#m43efcfbd68" x="257.06076" y="35.081056" style="fill: #40e0d0; stroke: #40e0d0"/>
     <use xlink:href="#m43efcfbd68" x="257.06076" y="42.339522" style="fill: #40e0d0; stroke: #40e0d0"/>
     <use xlink:href="#m43efcfbd68" x="274.110606" y="42.339522" style="fill: #40e0d0; stroke: #40e0d0"/>
     <use xlink:href="#m43efcfbd68" x="274.110606" y="49.560955" style="fill: #40e0d0; stroke: #40e0d0"/>
     <use xlink:href="#m43efcfbd68" x="276.848774" y="49.560955" style="fill: #40e0d0; stroke: #40e0d0"/>
     <use xlink:href="#m43efcfbd68" x="320.640973" y="49.560955" style="fill: #40e0d0; stroke: #40e0d0"/>
     <use xlink:href="#m43efcfbd68" x="320.640973" y="64.00382" style="fill: #40e0d0; stroke: #40e0d0"/>
     <use xlink:href="#m43efcfbd68" x="347.316328" y="64.00382" style="fill: #40e0d0; stroke: #40e0d0"/>
     <use xlink:href="#m43efcfbd68" x="347.316328" y="72.447341" style="fill: #40e0d0; stroke: #40e0d0"/>
     <use xlink:href="#m43efcfbd68" x="356.305169" y="72.447341" style="fill: #40e0d0; stroke: #40e0d0"/>
    </g>
   </g>
   <g id="line2d_39">
    <path d="M 33.305312 12.565 
L 91.435406 12.565 
L 91.435406 21.230719 
L 146.411413 21.230719 
L 146.411413 28.637317 
L 157.746821 28.637317 
L 157.746821 36.969739 
L 186.608784 36.969739 
L 186.608784 45.005897 
L 195.179681 45.005897 
L 195.179681 53.560517 
L 203.014743 53.560517 
L 203.014743 60.78195 
L 229.246697 60.78195 
L 229.246697 69.447669 
L 256.31036 69.447669 
L 256.31036 77.15053 
L 256.31036 77.706025 
L 256.31036 85.260755 
L 279.264999 85.260755 
L 279.264999 92.852517 
L 353.330673 92.852517 
L 353.330673 101.110873 
L 353.330673 101.481203 
L 353.330673 109.850659 
L 373.952296 109.850659 
" clip-path="url(#p58d3734826)" style="fill: none; stroke: #708090; stroke-width: 1.5; stroke-linecap: square"/>
    <defs>
     <path id="m7e1c50b2eb" d="M 0 3 
C 0.795609 3 1.55874 2.683901 2.12132 2.12132 
C 2.683901 1.55874 3 0.795609 3 0 
C 3 -0.795609 2.683901 -1.55874 2.12132 -2.12132 
C 1.55874 -2.683901 0.795609 -3 0 -3 
C -0.795609 -3 -1.55874 -2.683901 -2.12132 -2.12132 
C -2.683901 -1.55874 -3 -0.795609 -3 0 
C -3 0.795609 -2.683901 1.55874 -2.12132 2.12132 
C -1.55874 2.683901 -0.795609 3 0 3 
z
" style="stroke: #708090"/>
    </defs>
    <g clip-path="url(#p58d3734826)">
     <use xlink:href="#m7e1c50b2eb" x="33.305312" y="12.565" style="fill: #708090; stroke: #708090"/>
     <use xlink:href="#m7e1c50b2eb" x="91.435406" y="12.565" style="fill: #708090; stroke: #708090"/>
     <use xlink:href="#m7e1c50b2eb" x="91.435406" y="21.230719" style="fill: #708090; stroke: #708090"/>
     <use xlink:href="#m7e1c50b2eb" x="146.411413" y="21.230719" style="fill: #708090; stroke: #708090"/>
     <use xlink:href="#m7e1c50b2eb" x="146.411413" y="28.637317" style="fill: #708090; stroke: #708090"/>
     <use xlink:href="#m7e1c50b2eb" x="157.746821" y="28.637317" style="fill: #708090; stroke: #708090"/>
     <use xlink:href="#m7e1c50b2eb" x="157.746821" y="36.969739" style="fill: #708090; stroke: #708090"/>
     <use xlink:href="#m7e1c50b2eb" x="186.608784" y="36.969739" style="fill: #708090; stroke: #708090"/>
     <use xlink:href="#m7e1c50b2eb" x="186.608784" y="45.005897" style="fill: #708090; stroke: #708090"/>
     <use xlink:href="#m7e1c50b2eb" x="195.179681" y="45.005897" style="fill: #708090; stroke: #708090"/>
     <use xlink:href="#m7e1c50b2eb" x="195.179681" y="53.560517" style="fill: #708090; stroke: #708090"/>
     <use xlink:href="#m7e1c50b2eb" x="203.014743" y="53.560517" style="fill: #708090; stroke: #708090"/>
     <use xlink:href="#m7e1c50b2eb" x="203.014743" y="60.78195" style="fill: #708090; stroke: #708090"/>
     <use xlink:href="#m7e1c50b2eb" x="229.246697" y="60.78195" style="fill: #708090; stroke: #708090"/>
     <use xlink:href="#m7e1c50b2eb" x="229.246697" y="69.447669" style="fill: #708090; stroke: #708090"/>
     <use xlink:href="#m7e1c50b2eb" x="256.31036" y="69.447669" style="fill: #708090; stroke: #708090"/>
     <use xlink:href="#m7e1c50b2eb" x="256.31036" y="77.15053" style="fill: #708090; stroke: #708090"/>
     <use xlink:href="#m7e1c50b2eb" x="256.31036" y="77.706025" style="fill: #708090; stroke: #708090"/>
     <use xlink:href="#m7e1c50b2eb" x="256.31036" y="85.260755" style="fill: #708090; stroke: #708090"/>
     <use xlink:href="#m7e1c50b2eb" x="279.264999" y="85.260755" style="fill: #708090; stroke: #708090"/>
     <use xlink:href="#m7e1c50b2eb" x="279.264999" y="92.852517" style="fill: #708090; stroke: #708090"/>
     <use xlink:href="#m7e1c50b2eb" x="353.330673" y="92.852517" style="fill: #708090; stroke: #708090"/>
     <use xlink:href="#m7e1c50b2eb" x="353.330673" y="101.110873" style="fill: #708090; stroke: #708090"/>
     <use xlink:href="#m7e1c50b2eb" x="353.330673" y="101.481203" style="fill: #708090; stroke: #708090"/>
     <use xlink:href="#m7e1c50b2eb" x="353.330673" y="109.850659" style="fill: #708090; stroke: #708090"/>
     <use xlink:href="#m7e1c50b2eb" x="373.952296" y="109.850659" style="fill: #708090; stroke: #708090"/>
    </g>
   </g>
   <g id="line2d_40">
    <path d="M 33.305312 12.565 
L 40.212031 12.565 
L 40.212031 20.008631 
L 44.244433 20.008631 
L 44.244433 26.674568 
L 249.632371 26.674568 
L 250.372766 26.674568 
L 291.660592 26.674568 
L 291.660592 42.339522 
L 296.92327 42.339522 
L 296.92327 49.486889 
L 344.637686 49.486889 
L 344.729633 49.486889 
L 348.779513 49.486889 
L 348.779513 63.929754 
L 356.746797 63.929754 
" clip-path="url(#p58d3734826)" style="fill: none; stroke: #ff8c00; stroke-width: 1.5; stroke-linecap: square"/>
    <defs>
     <path id="mebe165dd1b" d="M 0 3 
C 0.795609 3 1.55874 2.683901 2.12132 2.12132 
C 2.683901 1.55874 3 0.795609 3 0 
C 3 -0.795609 2.683901 -1.55874 2.12132 -2.12132 
C 1.55874 -2.683901 0.795609 -3 0 -3 
C -0.795609 -3 -1.55874 -2.683901 -2.12132 -2.12132 
C -2.683901 -1.55874 -3 -0.795609 -3 0 
C -3 0.795609 -2.683901 1.55874 -2.12132 2.12132 
C -1.55874 2.683901 -0.795609 3 0 3 
z
" style="stroke: #ff8c00"/>
    </defs>
    <g clip-path="url(#p58d3734826)">
     <use xlink:href="#mebe165dd1b" x="33.305312" y="12.565" style="fill: #ff8c00; stroke: #ff8c00"/>
     <use xlink:href="#mebe165dd1b" x="40.212031" y="12.565" style="fill: #ff8c00; stroke: #ff8c00"/>
     <use xlink:href="#mebe165dd1b" x="40.212031" y="20.008631" style="fill: #ff8c00; stroke: #ff8c00"/>
     <use xlink:href="#mebe165dd1b" x="44.244433" y="20.008631" style="fill: #ff8c00; stroke: #ff8c00"/>
     <use xlink:href="#mebe165dd1b" x="44.244433" y="26.674568" style="fill: #ff8c00; stroke: #ff8c00"/>
     <use xlink:href="#mebe165dd1b" x="249.632371" y="26.674568" style="fill: #ff8c00; stroke: #ff8c00"/>
     <use xlink:href="#mebe165dd1b" x="250.372766" y="26.674568" style="fill: #ff8c00; stroke: #ff8c00"/>
     <use xlink:href="#mebe165dd1b" x="291.660592" y="26.674568" style="fill: #ff8c00; stroke: #ff8c00"/>
     <use xlink:href="#mebe165dd1b" x="291.660592" y="42.339522" style="fill: #ff8c00; stroke: #ff8c00"/>
     <use xlink:href="#mebe165dd1b" x="296.92327" y="42.339522" style="fill: #ff8c00; stroke: #ff8c00"/>
     <use xlink:href="#mebe165dd1b" x="296.92327" y="49.486889" style="fill: #ff8c00; stroke: #ff8c00"/>
     <use xlink:href="#mebe165dd1b" x="344.637686" y="49.486889" style="fill: #ff8c00; stroke: #ff8c00"/>
     <use xlink:href="#mebe165dd1b" x="344.729633" y="49.486889" style="fill: #ff8c00; stroke: #ff8c00"/>
     <use xlink:href="#mebe165dd1b" x="348.779513" y="49.486889" style="fill: #ff8c00; stroke: #ff8c00"/>
     <use xlink:href="#mebe165dd1b" x="348.779513" y="63.929754" style="fill: #ff8c00; stroke: #ff8c00"/>
     <use xlink:href="#mebe165dd1b" x="356.746797" y="63.929754" style="fill: #ff8c00; stroke: #ff8c00"/>
    </g>
   </g>
   <g id="line2d_41">
    <path d="M 33.305312 12.565 
L 39.977982 12.565 
L 39.977982 21.823247 
L 43.414751 21.823247 
L 43.414751 30.933362 
L 82.788519 30.933362 
L 82.788519 40.413807 
L 93.025493 40.413807 
L 93.025493 49.635021 
L 98.149237 49.635021 
L 98.149237 59.374696 
L 117.755255 59.374696 
L 117.755255 68.410745 
L 153.412739 68.410745 
L 153.412739 77.483827 
L 158.594741 77.483827 
L 158.594741 87.297569 
L 168.907072 87.297569 
L 168.907072 96.407684 
L 168.907072 104.703073 
L 189.158877 104.703073 
L 189.158877 114.70198 
L 189.158877 114.813079 
L 189.158877 123.515831 
L 189.158877 133.255507 
L 189.158877 141.699028 
L 196.071802 141.699028 
L 196.071802 151.290572 
L 200.200205 151.290572 
L 200.200205 159.734093 
L 252.616873 159.734093 
L 252.616873 170.955088 
L 259.71572 170.955088 
L 259.71572 179.65784 
L 286.416658 179.65784 
L 286.416658 187.990262 
L 297.939001 187.990262 
L 297.939001 197.989169 
L 349.397437 197.989169 
L 349.397437 206.840053 
L 380.029332 206.840053 
L 380.029332 217.024125 
L 391.712647 217.024125 
" clip-path="url(#p58d3734826)" style="fill: none; stroke: #ff00ff; stroke-width: 1.5; stroke-linecap: square"/>
    <defs>
     <path id="m0cde65ec3a" d="M 0 3 
C 0.795609 3 1.55874 2.683901 2.12132 2.12132 
C 2.683901 1.55874 3 0.795609 3 0 
C 3 -0.795609 2.683901 -1.55874 2.12132 -2.12132 
C 1.55874 -2.683901 0.795609 -3 0 -3 
C -0.795609 -3 -1.55874 -2.683901 -2.12132 -2.12132 
C -2.683901 -1.55874 -3 -0.795609 -3 0 
C -3 0.795609 -2.683901 1.55874 -2.12132 2.12132 
C -1.55874 2.683901 -0.795609 3 0 3 
z
" style="stroke: #ff00ff"/>
    </defs>
    <g clip-path="url(#p58d3734826)">
     <use xlink:href="#m0cde65ec3a" x="33.305312" y="12.565" style="fill: #ff00ff; stroke: #ff00ff"/>
     <use xlink:href="#m0cde65ec3a" x="39.977982" y="12.565" style="fill: #ff00ff; stroke: #ff00ff"/>
     <use xlink:href="#m0cde65ec3a" x="39.977982" y="21.823247" style="fill: #ff00ff; stroke: #ff00ff"/>
     <use xlink:href="#m0cde65ec3a" x="43.414751" y="21.823247" style="fill: #ff00ff; stroke: #ff00ff"/>
     <use xlink:href="#m0cde65ec3a" x="43.414751" y="30.933362" style="fill: #ff00ff; stroke: #ff00ff"/>
     <use xlink:href="#m0cde65ec3a" x="82.788519" y="30.933362" style="fill: #ff00ff; stroke: #ff00ff"/>
     <use xlink:href="#m0cde65ec3a" x="82.788519" y="40.413807" style="fill: #ff00ff; stroke: #ff00ff"/>
     <use xlink:href="#m0cde65ec3a" x="93.025493" y="40.413807" style="fill: #ff00ff; stroke: #ff00ff"/>
     <use xlink:href="#m0cde65ec3a" x="93.025493" y="49.635021" style="fill: #ff00ff; stroke: #ff00ff"/>
     <use xlink:href="#m0cde65ec3a" x="98.149237" y="49.635021" style="fill: #ff00ff; stroke: #ff00ff"/>
     <use xlink:href="#m0cde65ec3a" x="98.149237" y="59.374696" style="fill: #ff00ff; stroke: #ff00ff"/>
     <use xlink:href="#m0cde65ec3a" x="117.755255" y="59.374696" style="fill: #ff00ff; stroke: #ff00ff"/>
     <use xlink:href="#m0cde65ec3a" x="117.755255" y="68.410745" style="fill: #ff00ff; stroke: #ff00ff"/>
     <use xlink:href="#m0cde65ec3a" x="153.412739" y="68.410745" style="fill: #ff00ff; stroke: #ff00ff"/>
     <use xlink:href="#m0cde65ec3a" x="153.412739" y="77.483827" style="fill: #ff00ff; stroke: #ff00ff"/>
     <use xlink:href="#m0cde65ec3a" x="158.594741" y="77.483827" style="fill: #ff00ff; stroke: #ff00ff"/>
     <use xlink:href="#m0cde65ec3a" x="158.594741" y="87.297569" style="fill: #ff00ff; stroke: #ff00ff"/>
     <use xlink:href="#m0cde65ec3a" x="168.907072" y="87.297569" style="fill: #ff00ff; stroke: #ff00ff"/>
     <use xlink:href="#m0cde65ec3a" x="168.907072" y="96.407684" style="fill: #ff00ff; stroke: #ff00ff"/>
     <use xlink:href="#m0cde65ec3a" x="168.907072" y="104.703073" style="fill: #ff00ff; stroke: #ff00ff"/>
     <use xlink:href="#m0cde65ec3a" x="189.158877" y="104.703073" style="fill: #ff00ff; stroke: #ff00ff"/>
     <use xlink:href="#m0cde65ec3a" x="189.158877" y="114.70198" style="fill: #ff00ff; stroke: #ff00ff"/>
     <use xlink:href="#m0cde65ec3a" x="189.158877" y="114.813079" style="fill: #ff00ff; stroke: #ff00ff"/>
     <use xlink:href="#m0cde65ec3a" x="189.158877" y="123.515831" style="fill: #ff00ff; stroke: #ff00ff"/>
     <use xlink:href="#m0cde65ec3a" x="189.158877" y="133.255507" style="fill: #ff00ff; stroke: #ff00ff"/>
     <use xlink:href="#m0cde65ec3a" x="189.158877" y="141.699028" style="fill: #ff00ff; stroke: #ff00ff"/>
     <use xlink:href="#m0cde65ec3a" x="196.071802" y="141.699028" style="fill: #ff00ff; stroke: #ff00ff"/>
     <use xlink:href="#m0cde65ec3a" x="196.071802" y="151.290572" style="fill: #ff00ff; stroke: #ff00ff"/>
     <use xlink:href="#m0cde65ec3a" x="200.200205" y="151.290572" style="fill: #ff00ff; stroke: #ff00ff"/>
     <use xlink:href="#m0cde65ec3a" x="200.200205" y="159.734093" style="fill: #ff00ff; stroke: #ff00ff"/>
     <use xlink:href="#m0cde65ec3a" x="252.616873" y="159.734093" style="fill: #ff00ff; stroke: #ff00ff"/>
     <use xlink:href="#m0cde65ec3a" x="252.616873" y="170.955088" style="fill: #ff00ff; stroke: #ff00ff"/>
     <use xlink:href="#m0cde65ec3a" x="259.71572" y="170.955088" style="fill: #ff00ff; stroke: #ff00ff"/>
     <use xlink:href="#m0cde65ec3a" x="259.71572" y="179.65784" style="fill: #ff00ff; stroke: #ff00ff"/>
     <use xlink:href="#m0cde65ec3a" x="286.416658" y="179.65784" style="fill: #ff00ff; stroke: #ff00ff"/>
     <use xlink:href="#m0cde65ec3a" x="286.416658" y="187.990262" style="fill: #ff00ff; stroke: #ff00ff"/>
     <use xlink:href="#m0cde65ec3a" x="297.939001" y="187.990262" style="fill: #ff00ff; stroke: #ff00ff"/>
     <use xlink:href="#m0cde65ec3a" x="297.939001" y="197.989169" style="fill: #ff00ff; stroke: #ff00ff"/>
     <use xlink:href="#m0cde65ec3a" x="349.397437" y="197.989169" style="fill: #ff00ff; stroke: #ff00ff"/>
     <use xlink:href="#m0cde65ec3a" x="349.397437" y="206.840053" style="fill: #ff00ff; stroke: #ff00ff"/>
     <use xlink:href="#m0cde65ec3a" x="380.029332" y="206.840053" style="fill: #ff00ff; stroke: #ff00ff"/>
     <use xlink:href="#m0cde65ec3a" x="380.029332" y="217.024125" style="fill: #ff00ff; stroke: #ff00ff"/>
     <use xlink:href="#m0cde65ec3a" x="391.712647" y="217.024125" style="fill: #ff00ff; stroke: #ff00ff"/>
    </g>
   </g>
   <g id="line2d_42">
    <path d="M 33.305312 12.565 
L 151.201814 12.565 
L 151.201814 19.490169 
L 159.579443 19.490169 
L 159.579443 27.56336 
L 214.306583 27.56336 
L 214.306583 35.340287 
L 302.764358 35.340287 
L 302.764358 42.006225 
L 302.764358 42.413588 
L 305.44262 42.413588 
L 320.744826 42.413588 
L 320.744826 57.078651 
L 356.218034 57.078651 
" clip-path="url(#p58d3734826)" style="fill: none; stroke: #008080; stroke-width: 1.5; stroke-linecap: square"/>
    <defs>
     <path id="m7ad4e325b2" d="M 0 3 
C 0.795609 3 1.55874 2.683901 2.12132 2.12132 
C 2.683901 1.55874 3 0.795609 3 0 
C 3 -0.795609 2.683901 -1.55874 2.12132 -2.12132 
C 1.55874 -2.683901 0.795609 -3 0 -3 
C -0.795609 -3 -1.55874 -2.683901 -2.12132 -2.12132 
C -2.683901 -1.55874 -3 -0.795609 -3 0 
C -3 0.795609 -2.683901 1.55874 -2.12132 2.12132 
C -1.55874 2.683901 -0.795609 3 0 3 
z
" style="stroke: #008080"/>
    </defs>
    <g clip-path="url(#p58d3734826)">
     <use xlink:href="#m7ad4e325b2" x="33.305312" y="12.565" style="fill: #008080; stroke: #008080"/>
     <use xlink:href="#m7ad4e325b2" x="151.201814" y="12.565" style="fill: #008080; stroke: #008080"/>
     <use xlink:href="#m7ad4e325b2" x="151.201814" y="19.490169" style="fill: #008080; stroke: #008080"/>
     <use xlink:href="#m7ad4e325b2" x="159.579443" y="19.490169" style="fill: #008080; stroke: #008080"/>
     <use xlink:href="#m7ad4e325b2" x="159.579443" y="27.56336" style="fill: #008080; stroke: #008080"/>
     <use xlink:href="#m7ad4e325b2" x="214.306583" y="27.56336" style="fill: #008080; stroke: #008080"/>
     <use xlink:href="#m7ad4e325b2" x="214.306583" y="35.340287" style="fill: #008080; stroke: #008080"/>
     <use xlink:href="#m7ad4e325b2" x="302.764358" y="35.340287" style="fill: #008080; stroke: #008080"/>
     <use xlink:href="#m7ad4e325b2" x="302.764358" y="42.006225" style="fill: #008080; stroke: #008080"/>
     <use xlink:href="#m7ad4e325b2" x="302.764358" y="42.413588" style="fill: #008080; stroke: #008080"/>
     <use xlink:href="#m7ad4e325b2" x="305.44262" y="42.413588" style="fill: #008080; stroke: #008080"/>
     <use xlink:href="#m7ad4e325b2" x="320.744826" y="42.413588" style="fill: #008080; stroke: #008080"/>
     <use xlink:href="#m7ad4e325b2" x="320.744826" y="57.078651" style="fill: #008080; stroke: #008080"/>
     <use xlink:href="#m7ad4e325b2" x="356.218034" y="57.078651" style="fill: #008080; stroke: #008080"/>
    </g>
   </g>
   <g id="patch_3">
    <path d="M 33.305312 271.795914 
L 33.305312 12.565 
" style="fill: none; stroke: #000000; stroke-width: 0.8; stroke-linejoin: miter; stroke-linecap: square"/>
   </g>
   <g id="patch_4">
    <path d="M 476.57952 271.795914 
L 476.57952 12.565 
" style="fill: none; stroke: #000000; stroke-width: 0.8; stroke-linejoin: miter; stroke-linecap: square"/>
   </g>
   <g id="patch_5">
    <path d="M 33.305312 271.795914 
L 476.57952 271.795914 
" style="fill: none; stroke: #000000; stroke-width: 0.8; stroke-linejoin: miter; stroke-linecap: square"/>
   </g>
   <g id="patch_6">
    <path d="M 33.305312 12.565 
L 476.57952 12.565 
" style="fill: none; stroke: #000000; stroke-width: 0.8; stroke-linejoin: miter; stroke-linecap: square"/>
   </g>
   <g id="text_19">
    <!-- Male -->
    <g transform="translate(246.723041 6.565) scale(0.08 -0.08)">
     <defs>
      <path id="Times-Roman-4d" d="M 72 116 
Q 469 156 581 295 
Q 694 434 694 941 
L 694 3541 
Q 694 3888 584 3992 
Q 475 4097 88 4116 
L 88 4234 
L 1353 4234 
L 2834 1006 
L 4250 4234 
L 5525 4234 
L 5525 4116 
Q 5169 4091 5066 3986 
Q 4963 3881 4963 3541 
L 4963 694 
Q 4963 344 5066 245 
Q 5169 147 5525 116 
L 5525 0 
L 3731 0 
L 3731 116 
Q 4119 147 4214 255 
Q 4309 363 4309 769 
L 4309 3644 
L 2672 0 
L 2584 0 
L 975 3494 
L 975 941 
Q 975 416 1128 256 
Q 1228 153 1575 116 
L 1575 0 
L 72 0 
L 72 116 
z
" transform="scale(0.015625)"/>
     </defs>
     <use xlink:href="#Times-Roman-4d"/>
     <use xlink:href="#Times-Roman-61" x="88.916016"/>
     <use xlink:href="#Times-Roman-6c" x="133.300781"/>
     <use xlink:href="#Times-Roman-65" x="161.083984"/>
    </g>
   </g>
   <g id="legend_1">
    <g id="patch_7">
     <path d="M 416.85327 102.445 
L 472.37952 102.445 
Q 473.57952 102.445 473.57952 101.245 
L 473.57952 16.765 
Q 473.57952 15.565 472.37952 15.565 
L 416.85327 15.565 
Q 415.65327 15.565 415.65327 16.765 
L 415.65327 101.245 
Q 415.65327 102.445 416.85327 102.445 
z
" style="fill: #ffffff; opacity: 0.8; stroke: #cccccc; stroke-linejoin: miter"/>
    </g>
    <g id="line2d_43">
     <path d="M 418.05327 20.065 
L 424.05327 20.065 
L 430.05327 20.065 
" style="fill: none; stroke: #add8e6; stroke-width: 1.5; stroke-linecap: square"/>
     <g>
      <use xlink:href="#m7e1a76667f" x="424.05327" y="20.065" style="fill: #add8e6; stroke: #add8e6"/>
     </g>
    </g>
    <g id="text_20">
     <!-- None -->
     <g transform="translate(434.85327 22.165) scale(0.06 -0.06)">
      <defs>
       <path id="Times-Roman-4e" d="M 72 116 
Q 469 156 581 295 
Q 694 434 694 941 
L 694 3763 
L 606 3866 
Q 466 4031 367 4070 
Q 269 4109 72 4116 
L 72 4234 
L 1169 4234 
L 3634 1153 
L 3634 3294 
Q 3634 3822 3478 3981 
Q 3375 4084 3022 4116 
L 3022 4234 
L 4525 4234 
L 4525 4116 
Q 4159 4078 4037 3937 
Q 3916 3797 3916 3294 
L 3916 -75 
L 3806 -75 
L 975 3434 
L 975 941 
Q 975 416 1128 256 
Q 1228 153 1575 116 
L 1575 0 
L 72 0 
L 72 116 
z
M 2316 4234 
L 2316 4234 
z
" transform="scale(0.015625)"/>
       <path id="Times-Roman-6f" d="M 163 1450 
Q 163 2072 558 2501 
Q 953 2931 1575 2931 
Q 2194 2931 2600 2525 
Q 3006 2119 3006 1444 
Q 3006 822 2612 362 
Q 2219 -97 1594 -97 
Q 994 -97 578 343 
Q 163 784 163 1450 
z
M 1488 2744 
Q 1241 2744 1059 2581 
Q 747 2297 747 1600 
Q 747 1044 998 562 
Q 1250 81 1697 81 
Q 2047 81 2236 403 
Q 2425 725 2425 1247 
Q 2425 1788 2184 2266 
Q 1944 2744 1488 2744 
z
M 1603 2931 
L 1603 2931 
z
" transform="scale(0.015625)"/>
      </defs>
      <use xlink:href="#Times-Roman-4e"/>
      <use xlink:href="#Times-Roman-6f" x="72.216797"/>
      <use xlink:href="#Times-Roman-6e" x="122.216797"/>
      <use xlink:href="#Times-Roman-65" x="172.216797"/>
     </g>
    </g>
    <g id="line2d_44">
     <path d="M 418.05327 28.571875 
L 424.05327 28.571875 
L 430.05327 28.571875 
" style="fill: none; stroke: #008000; stroke-width: 1.5; stroke-linecap: square"/>
     <g>
      <use xlink:href="#m2f687e034a" x="424.05327" y="28.571875" style="fill: #008000; stroke: #008000"/>
     </g>
    </g>
    <g id="text_21">
     <!-- Rapamycin -->
     <g transform="translate(434.85327 30.671875) scale(0.06 -0.06)">
      <defs>
       <path id="Times-Roman-52" d="M 1272 2191 
Q 1963 2216 2259 2334 
Q 2769 2544 2769 3122 
Q 2769 3678 2313 3881 
Q 2069 3991 1666 3991 
Q 1394 3991 1333 3952 
Q 1272 3913 1272 3769 
L 1272 2191 
z
M 72 116 
Q 441 150 531 259 
Q 622 369 622 769 
L 622 3541 
Q 622 3878 520 3983 
Q 419 4088 72 4116 
L 72 4234 
L 1844 4234 
Q 2397 4234 2766 4094 
Q 3466 3828 3466 3116 
Q 3466 2638 3155 2381 
Q 2844 2125 2309 2044 
L 3628 422 
Q 3750 272 3872 203 
Q 3994 134 4184 116 
L 4184 0 
L 3153 0 
L 1628 1969 
L 1272 1953 
L 1272 694 
Q 1272 338 1380 242 
Q 1488 147 1850 116 
L 1850 0 
L 72 0 
L 72 116 
z
" transform="scale(0.015625)"/>
       <path id="Times-Roman-70" d="M 1022 575 
Q 1103 363 1264 258 
Q 1425 153 1644 153 
Q 1981 153 2220 489 
Q 2459 825 2459 1425 
Q 2459 2000 2211 2284 
Q 1963 2569 1634 2569 
Q 1403 2569 1212 2426 
Q 1022 2284 1022 2147 
L 1022 575 
z
M 28 -1291 
Q 322 -1272 401 -1165 
Q 481 -1059 481 -831 
L 481 2169 
Q 481 2406 423 2473 
Q 366 2541 206 2541 
Q 172 2541 142 2537 
Q 113 2534 56 2525 
L 56 2628 
L 353 2725 
Q 369 2728 981 2941 
Q 997 2941 1005 2927 
Q 1013 2913 1013 2894 
L 1013 2472 
Q 1219 2678 1375 2778 
Q 1656 2953 1953 2953 
Q 2384 2953 2695 2586 
Q 3006 2219 3006 1581 
Q 3006 956 2632 446 
Q 2259 -63 1694 -63 
Q 1519 -63 1391 -19 
Q 1191 47 1022 222 
L 1022 -800 
Q 1022 -1116 1125 -1187 
Q 1228 -1259 1575 -1284 
L 1575 -1394 
L 28 -1394 
L 28 -1291 
z
" transform="scale(0.015625)"/>
       <path id="Times-Roman-6d" d="M 103 81 
Q 347 103 428 163 
Q 553 253 553 525 
L 553 2141 
Q 553 2372 492 2444 
Q 431 2516 291 2516 
Q 225 2516 192 2509 
Q 159 2503 116 2488 
L 116 2597 
L 341 2672 
Q 463 2713 741 2819 
Q 1019 2925 1034 2925 
Q 1050 2925 1053 2909 
Q 1056 2894 1056 2850 
L 1056 2428 
Q 1366 2709 1591 2817 
Q 1816 2925 2053 2925 
Q 2375 2925 2566 2706 
Q 2666 2588 2731 2384 
Q 2963 2619 3134 2731 
Q 3431 2925 3741 2925 
Q 4244 2925 4413 2516 
Q 4509 2284 4509 1784 
L 4509 488 
Q 4509 266 4607 186 
Q 4706 106 4963 81 
L 4963 0 
L 3553 0 
L 3553 88 
Q 3825 113 3911 197 
Q 3997 281 3997 541 
L 3997 1888 
Q 3997 2191 3931 2334 
Q 3816 2591 3478 2591 
Q 3275 2591 3075 2456 
Q 2959 2378 2791 2206 
L 2791 606 
Q 2791 353 2880 222 
Q 2969 91 3256 81 
L 3256 0 
L 1822 0 
L 1822 81 
Q 2119 119 2200 225 
Q 2281 331 2281 747 
L 2281 1622 
Q 2281 2103 2219 2284 
Q 2116 2591 1781 2591 
Q 1591 2591 1406 2486 
Q 1222 2381 1081 2213 
L 1081 503 
Q 1081 266 1164 175 
Q 1247 84 1525 81 
L 1525 0 
L 103 0 
L 103 81 
z
" transform="scale(0.015625)"/>
       <path id="Times-Roman-63" d="M 1591 2947 
Q 1981 2947 2264 2745 
Q 2547 2544 2547 2303 
Q 2547 2200 2475 2111 
Q 2403 2022 2253 2022 
Q 2144 2022 2061 2097 
Q 1978 2172 1941 2316 
L 1903 2466 
Q 1863 2631 1763 2700 
Q 1659 2766 1491 2766 
Q 1134 2766 889 2455 
Q 644 2144 644 1628 
Q 644 1156 914 781 
Q 1184 406 1644 406 
Q 1969 406 2222 619 
Q 2366 741 2547 1006 
L 2634 953 
Q 2456 578 2259 359 
Q 1881 -59 1384 -59 
Q 897 -59 522 325 
Q 147 709 147 1369 
Q 147 2016 556 2481 
Q 966 2947 1591 2947 
z
M 1453 2947 
L 1453 2947 
z
" transform="scale(0.015625)"/>
      </defs>
      <use xlink:href="#Times-Roman-52"/>
      <use xlink:href="#Times-Roman-61" x="66.699219"/>
      <use xlink:href="#Times-Roman-70" x="111.083984"/>
      <use xlink:href="#Times-Roman-61" x="161.083984"/>
      <use xlink:href="#Times-Roman-6d" x="205.46875"/>
      <use xlink:href="#Times-Roman-79" x="283.251953"/>
      <use xlink:href="#Times-Roman-63" x="333.251953"/>
      <use xlink:href="#Times-Roman-69" x="377.636719"/>
      <use xlink:href="#Times-Roman-6e" x="405.419922"/>
     </g>
    </g>
    <g id="line2d_45">
     <path d="M 418.05327 37.084375 
L 424.05327 37.084375 
L 430.05327 37.084375 
" style="fill: none; stroke: #ffd700; stroke-width: 1.5; stroke-linecap: square"/>
     <g>
      <use xlink:href="#m53a952ec54" x="424.05327" y="37.084375" style="fill: #ffd700; stroke: #ffd700"/>
     </g>
    </g>
    <g id="text_22">
     <!-- HSCs -->
     <g transform="translate(434.85327 39.184375) scale(0.06 -0.06)">
      <defs>
       <path id="Times-Roman-48" d="M 103 116 
Q 478 156 572 254 
Q 666 353 666 769 
L 666 3541 
Q 666 3884 561 3987 
Q 456 4091 103 4116 
L 103 4234 
L 1881 4234 
L 1881 4116 
Q 1528 4091 1422 3987 
Q 1316 3884 1316 3541 
L 1316 2294 
L 3256 2294 
L 3256 3541 
Q 3256 3884 3153 3987 
Q 3050 4091 2694 4116 
L 2694 4234 
L 4472 4234 
L 4472 4116 
Q 4119 4091 4014 3987 
Q 3909 3884 3909 3541 
L 3909 694 
Q 3909 344 4014 245 
Q 4119 147 4472 116 
L 4472 0 
L 2694 0 
L 2694 116 
Q 3072 153 3164 253 
Q 3256 353 3256 769 
L 3256 2013 
L 1316 2013 
L 1316 694 
Q 1316 344 1422 244 
Q 1528 144 1881 116 
L 1881 0 
L 103 0 
L 103 116 
z
" transform="scale(0.015625)"/>
       <path id="Times-Roman-43" d="M 2369 4309 
Q 2716 4309 3081 4206 
Q 3447 4103 3491 4103 
Q 3581 4103 3662 4153 
Q 3744 4203 3775 4309 
L 3909 4309 
L 3969 2872 
L 3822 2872 
Q 3694 3300 3488 3563 
Q 3094 4056 2428 4056 
Q 1756 4056 1329 3525 
Q 903 2994 903 2063 
Q 903 1206 1351 695 
Q 1800 184 2488 184 
Q 2984 184 3403 422 
Q 3644 556 3931 828 
L 4050 709 
Q 3838 441 3522 238 
Q 2984 -106 2356 -106 
Q 1325 -106 719 553 
Q 159 1163 159 2075 
Q 159 3009 750 3644 
Q 1372 4309 2369 4309 
z
M 2347 4309 
Q 2347 4309 2347 4309 
z
" transform="scale(0.015625)"/>
      </defs>
      <use xlink:href="#Times-Roman-48"/>
      <use xlink:href="#Times-Roman-53" x="72.216797"/>
      <use xlink:href="#Times-Roman-43" x="127.832031"/>
      <use xlink:href="#Times-Roman-73" x="194.53125"/>
     </g>
    </g>
    <g id="line2d_46">
     <path d="M 418.05327 45.59125 
L 424.05327 45.59125 
L 430.05327 45.59125 
" style="fill: none; stroke: #800080; stroke-width: 1.5; stroke-linecap: square"/>
     <g>
      <use xlink:href="#m9fa5984225" x="424.05327" y="45.59125" style="fill: #800080; stroke: #800080"/>
     </g>
    </g>
    <g id="text_23">
     <!-- Gal-Nav -->
     <g transform="translate(434.85327 47.69125) scale(0.06 -0.06)">
      <defs>
       <path id="Times-Roman-47" d="M 2369 4309 
Q 2741 4309 3100 4206 
Q 3459 4103 3513 4103 
Q 3650 4103 3708 4156 
Q 3766 4209 3806 4309 
L 3947 4309 
L 3997 2963 
L 3850 2963 
Q 3653 3428 3444 3656 
Q 3066 4056 2459 4056 
Q 1844 4056 1376 3589 
Q 909 3122 909 2050 
Q 909 1166 1375 669 
Q 1841 172 2525 172 
Q 2641 172 2797 194 
Q 2953 216 3094 263 
Q 3322 338 3378 392 
Q 3434 447 3434 553 
L 3434 1575 
Q 3434 1944 3329 2034 
Q 3225 2125 2872 2147 
L 2872 2266 
L 4503 2266 
L 4503 2147 
Q 4266 2131 4188 2069 
Q 4056 1969 4056 1656 
L 4056 397 
Q 4056 284 3504 96 
Q 2953 -91 2444 -91 
Q 1506 -91 863 456 
Q 153 1059 153 2075 
Q 153 2969 719 3606 
Q 1341 4309 2369 4309 
z
M 2266 4309 
L 2266 4309 
z
" transform="scale(0.015625)"/>
       <path id="Times-Roman-2d" d="M 250 1644 
L 1822 1644 
L 1822 1244 
L 250 1244 
L 250 1644 
z
" transform="scale(0.015625)"/>
      </defs>
      <use xlink:href="#Times-Roman-47"/>
      <use xlink:href="#Times-Roman-61" x="72.216797"/>
      <use xlink:href="#Times-Roman-6c" x="116.601562"/>
      <use xlink:href="#Times-Roman-2d" x="144.384766"/>
      <use xlink:href="#Times-Roman-4e" x="177.685547"/>
      <use xlink:href="#Times-Roman-61" x="249.902344"/>
      <use xlink:href="#Times-Roman-76" x="294.287109"/>
     </g>
    </g>
    <g id="line2d_47">
     <path d="M 418.05327 54.098125 
L 424.05327 54.098125 
L 430.05327 54.098125 
" style="fill: none; stroke: #ff7f50; stroke-width: 1.5; stroke-linecap: square"/>
     <g>
      <use xlink:href="#mba25094248" x="424.05327" y="54.098125" style="fill: #ff7f50; stroke: #ff7f50"/>
     </g>
    </g>
    <g id="text_24">
     <!-- no_Rapamycin -->
     <g transform="translate(434.85327 56.198125) scale(0.06 -0.06)">
      <defs>
       <path id="Times-Roman-5f" d="M 0 -800 
L 0 -484 
L 3197 -484 
L 3197 -800 
L 0 -800 
z
" transform="scale(0.015625)"/>
      </defs>
      <use xlink:href="#Times-Roman-6e"/>
      <use xlink:href="#Times-Roman-6f" x="50"/>
      <use xlink:href="#Times-Roman-5f" x="100"/>
      <use xlink:href="#Times-Roman-52" x="150"/>
      <use xlink:href="#Times-Roman-61" x="216.699219"/>
      <use xlink:href="#Times-Roman-70" x="261.083984"/>
      <use xlink:href="#Times-Roman-61" x="311.083984"/>
      <use xlink:href="#Times-Roman-6d" x="355.46875"/>
      <use xlink:href="#Times-Roman-79" x="433.251953"/>
      <use xlink:href="#Times-Roman-63" x="483.251953"/>
      <use xlink:href="#Times-Roman-69" x="527.636719"/>
      <use xlink:href="#Times-Roman-6e" x="555.419922"/>
     </g>
    </g>
    <g id="line2d_48">
     <path d="M 418.05327 62.610625 
L 424.05327 62.610625 
L 430.05327 62.610625 
" style="fill: none; stroke: #40e0d0; stroke-width: 1.5; stroke-linecap: square"/>
     <g>
      <use xlink:href="#m43efcfbd68" x="424.05327" y="62.610625" style="fill: #40e0d0; stroke: #40e0d0"/>
     </g>
    </g>
    <g id="text_25">
     <!-- no_HSCs -->
     <g transform="translate(434.85327 64.710625) scale(0.06 -0.06)">
      <use xlink:href="#Times-Roman-6e"/>
      <use xlink:href="#Times-Roman-6f" x="50"/>
      <use xlink:href="#Times-Roman-5f" x="100"/>
      <use xlink:href="#Times-Roman-48" x="150"/>
      <use xlink:href="#Times-Roman-53" x="222.216797"/>
      <use xlink:href="#Times-Roman-43" x="277.832031"/>
      <use xlink:href="#Times-Roman-73" x="344.53125"/>
     </g>
    </g>
    <g id="line2d_49">
     <path d="M 418.05327 71.1175 
L 424.05327 71.1175 
L 430.05327 71.1175 
" style="fill: none; stroke: #708090; stroke-width: 1.5; stroke-linecap: square"/>
     <g>
      <use xlink:href="#m7e1c50b2eb" x="424.05327" y="71.1175" style="fill: #708090; stroke: #708090"/>
     </g>
    </g>
    <g id="text_26">
     <!-- mTERT -->
     <g transform="translate(434.85327 73.2175) scale(0.06 -0.06)">
      <defs>
       <path id="Times-Roman-54" d="M 125 4234 
L 3741 4234 
L 3775 3147 
L 3622 3147 
Q 3509 3659 3336 3814 
Q 3163 3969 2606 3969 
L 2250 3969 
L 2250 694 
Q 2250 322 2365 233 
Q 2481 144 2872 116 
L 2872 0 
L 1006 0 
L 1006 116 
Q 1413 147 1513 250 
Q 1613 353 1613 769 
L 1613 3969 
L 1256 3969 
Q 725 3969 533 3816 
Q 341 3663 244 3147 
L 88 3147 
L 125 4234 
z
" transform="scale(0.015625)"/>
       <path id="Times-Roman-45" d="M 72 116 
Q 425 153 529 242 
Q 634 331 634 694 
L 634 3541 
Q 634 3881 531 3986 
Q 428 4091 72 4116 
L 72 4234 
L 3472 4234 
L 3494 3316 
L 3331 3316 
Q 3250 3741 3087 3866 
Q 2925 3991 2363 3991 
L 1494 3991 
Q 1353 3991 1320 3945 
Q 1288 3900 1288 3775 
L 1288 2347 
L 2272 2347 
Q 2681 2347 2793 2469 
Q 2906 2591 2975 2963 
L 3125 2963 
L 3125 1481 
L 2975 1481 
Q 2903 1853 2790 1973 
Q 2678 2094 2272 2094 
L 1288 2094 
L 1288 509 
Q 1288 319 1408 284 
Q 1528 250 2128 250 
Q 2778 250 3087 392 
Q 3397 534 3644 1081 
L 3822 1081 
L 3531 0 
L 72 0 
L 72 116 
z
M 1959 4234 
L 1959 4234 
z
" transform="scale(0.015625)"/>
      </defs>
      <use xlink:href="#Times-Roman-6d"/>
      <use xlink:href="#Times-Roman-54" x="77.783203"/>
      <use xlink:href="#Times-Roman-45" x="138.867188"/>
      <use xlink:href="#Times-Roman-52" x="199.951172"/>
      <use xlink:href="#Times-Roman-54" x="266.650391"/>
     </g>
    </g>
    <g id="line2d_50">
     <path d="M 418.05327 79.624375 
L 424.05327 79.624375 
L 430.05327 79.624375 
" style="fill: none; stroke: #ff8c00; stroke-width: 1.5; stroke-linecap: square"/>
     <g>
      <use xlink:href="#mebe165dd1b" x="424.05327" y="79.624375" style="fill: #ff8c00; stroke: #ff8c00"/>
     </g>
    </g>
    <g id="text_27">
     <!-- no_Gal_Nav -->
     <g transform="translate(434.85327 81.724375) scale(0.06 -0.06)">
      <use xlink:href="#Times-Roman-6e"/>
      <use xlink:href="#Times-Roman-6f" x="50"/>
      <use xlink:href="#Times-Roman-5f" x="100"/>
      <use xlink:href="#Times-Roman-47" x="150"/>
      <use xlink:href="#Times-Roman-61" x="222.216797"/>
      <use xlink:href="#Times-Roman-6c" x="266.601562"/>
      <use xlink:href="#Times-Roman-5f" x="294.384766"/>
      <use xlink:href="#Times-Roman-4e" x="344.384766"/>
      <use xlink:href="#Times-Roman-61" x="416.601562"/>
      <use xlink:href="#Times-Roman-76" x="460.986328"/>
     </g>
    </g>
    <g id="line2d_51">
     <path d="M 418.05327 88.13125 
L 424.05327 88.13125 
L 430.05327 88.13125 
" style="fill: none; stroke: #ff00ff; stroke-width: 1.5; stroke-linecap: square"/>
     <g>
      <use xlink:href="#m0cde65ec3a" x="424.05327" y="88.13125" style="fill: #ff00ff; stroke: #ff00ff"/>
     </g>
    </g>
    <g id="text_28">
     <!-- no_mTERT -->
     <g transform="translate(434.85327 90.23125) scale(0.06 -0.06)">
      <use xlink:href="#Times-Roman-6e"/>
      <use xlink:href="#Times-Roman-6f" x="50"/>
      <use xlink:href="#Times-Roman-5f" x="100"/>
      <use xlink:href="#Times-Roman-6d" x="150"/>
      <use xlink:href="#Times-Roman-54" x="227.783203"/>
      <use xlink:href="#Times-Roman-45" x="288.867188"/>
      <use xlink:href="#Times-Roman-52" x="349.951172"/>
      <use xlink:href="#Times-Roman-54" x="416.650391"/>
     </g>
    </g>
    <g id="line2d_52">
     <path d="M 418.05327 96.638125 
L 424.05327 96.638125 
L 430.05327 96.638125 
" style="fill: none; stroke: #008080; stroke-width: 1.5; stroke-linecap: square"/>
     <g>
      <use xlink:href="#m7ad4e325b2" x="424.05327" y="96.638125" style="fill: #008080; stroke: #008080"/>
     </g>
    </g>
    <g id="text_29">
     <!-- All -->
     <g transform="translate(434.85327 98.738125) scale(0.06 -0.06)">
      <use xlink:href="#Times-Roman-41"/>
      <use xlink:href="#Times-Roman-6c" x="72.216797"/>
      <use xlink:href="#Times-Roman-6c" x="100"/>
     </g>
    </g>
   </g>
  </g>
 </g>
 <defs>
  <clipPath id="p58d3734826">
   <rect x="33.305312" y="12.565" width="443.274208" height="259.230914"/>
  </clipPath>
 </defs>
</svg>
